<?xml version="1.0" standalone="no"?>
<!DOCTYPE svg PUBLIC "-//W3C//DTD SVG 1.1//EN" "http://www.w3.org/Graphics/SVG/1.1/DTD/svg11.dtd" >
<svg xmlns="http://www.w3.org/2000/svg">
<metadata>Generated by IcoMoon</metadata>
<defs>
<font id="aol-icons" horiz-adv-x="1024">
<font-face units-per-em="1024" ascent="788.48" descent="-235.52" />
<missing-glyph horiz-adv-x="1024" />
<glyph unicode="&#x20;" horiz-adv-x="512" d="" />
<glyph unicode="&#xe900;" glyph-name="icon_arrow-down" d="M508.8 32l-457.6 424 86.4 92.8 377.6-348.8 377.6 348.8 88-92.8-457.6-424-8-6.4z" />
<glyph unicode="&#xe901;" glyph-name="icon_arrow-up" d="M508.8 542.4l-457.6-424 86.4-92.8 377.6 348.8 377.6-348.8 88 92.8-457.6 424-8 6.4z" />
<glyph unicode="&#xe902;" glyph-name="icon_blog-post" d="M651.2 566.4c0 22.4-19.2 41.6-41.6 41.6l-371.2-84.8c-22.4 0-41.6-19.2-41.6-41.6 0 0 24-89.6 24-184 0-100.8-24-206.4-24-206.4 0-22.4 19.2-41.6 41.6-41.6l371.2-81.6c22.4 0 41.6 19.2 41.6 41.6 0 0 32 142.4 32 284.8 1.6 136-32 272-32 272zM328 436.8l214.4 27.2c19.2 3.2 35.2-11.2 38.4-30.4 1.6-19.2-11.2-36.8-30.4-38.4l-214.4-17.6c-12.8-1.6-25.6 11.2-27.2 27.2-3.2 16 6.4 30.4 19.2 32zM579.2 142.4c-1.6-19.2-19.2-33.6-38.4-30.4l-214.4 27.2c-12.8 1.6-22.4 16-20.8 32s14.4 27.2 27.2 27.2l214.4-17.6c20.8-1.6 35.2-19.2 32-38.4zM553.6 252.8l-216 4.8c-12.8 0-24 12.8-24 28.8s11.2 28.8 24 28.8l216 4.8c19.2 0 33.6-14.4 33.6-35.2 1.6-17.6-14.4-32-33.6-32zM702.4 571.2c33.6 8 56 12.8 56 12.8 20.8 0 38.4-17.6 38.4-38.4 0 0 30.4-124.8 30.4-252.8 0-129.6-30.4-262.4-30.4-262.4 0-20.8-17.6-38.4-38.4-38.4 0 0-22.4 4.8-57.6 12.8 44.8 166.4 44.8 401.6 1.6 566.4z" />
<glyph unicode="&#xe903;" glyph-name="icon_bomb" d="M713.6 188.8c-17.6 88-96 147.2-182.4 144l-22.4 49.6-118.4-51.2 20.8-48c-44.8-41.6-65.6-104-52.8-168 20.8-97.6 115.2-161.6 214.4-140.8s161.6 116.8 140.8 214.4zM580.8 153.6c-36.8-8-72 16-80 52.8-4.8 25.6 4.8 49.6 22.4 65.6l28.8 12.8v1.6c0 0 0 0 0 0 36.8 8 72-16 80-52.8s-14.4-72-51.2-80zM425.6 484.8c0 0-11.2-44.8 9.6-104 0 0 12.8 4.8 22.4 11.2-19.2 52.8-9.6 94.4-9.6 94.4l-22.4-1.6zM564.461 536.176l5.207-18.48-69.3-19.526-5.207 18.48 69.3 19.526zM411.123 604.907l24.65-82.806-18.401-5.478-24.65 82.806 18.401 5.478zM332.086 394.394l52.439 56.11 14.028-13.11-52.439-56.11-14.028 13.11zM503.032 472.404l49.801-28.944-9.648-16.6-49.801 28.944 9.648 16.6zM312.589 519.563l70.545-26.042-6.649-18.012-70.545 26.042 6.649 18.012z" />
<glyph unicode="&#xe904;" glyph-name="icon_call-centre" d="M644.8 534.4c-27.2 43.2-83.2 73.6-132.8 73.6s-105.6-30.4-132.8-73.6c-19.2-28.8-16-64-16-104 0-59.2 24-120 60.8-152 24-22.4 54.4-38.4 88-38.4s64 16 88 38.4c36.8 32 60.8 94.4 60.8 152 0 40 3.2 75.2-16 104zM659.2 347.2h-4.8c-14.4 1.6-24 14.4-22.4 28.8l4.8 41.6c1.6 14.4 14.4 24 28.8 22.4h4.8c14.4-1.6 24-14.4 22.4-28.8l-4.8-43.2c-1.6-12.8-14.4-24-28.8-20.8zM374.4 347.2h-6.4c-14.4-3.2-27.2 6.4-30.4 19.2l-9.6 43.2c-3.2 14.4 6.4 27.2 19.2 30.4l4.8 1.6c14.4 3.2 27.2-6.4 30.4-19.2l9.6-43.2c4.8-14.4-4.8-28.8-17.6-32zM784 62.4c-3.2 84.8-86.4 155.2-198.4 177.6-8-4.8-20.8-8-38.4-9.6v0l-33.6-100.8-38.4 100.8c-16 1.6-30.4 6.4-38.4 9.6-112-22.4-195.2-92.8-198.4-177.6 0-1.6 0-3.2 0-4.8 0-49.6 121.6-88 272-88s272 40 272 88c1.6 1.6 1.6 3.2 1.6 4.8zM692.8 91.2h-83.2v32h83.2v-32z" />
<glyph unicode="&#xe905;" glyph-name="icon_cooking" d="M822.4 369.6c-4.8 64-64 112-129.6 107.2-1.6 0-1.6 0-3.2 0-22.4 80-99.2 134.4-185.6 126.4-40-4.8-84.8-46.4-104-67.2-6.4-8-11.2-16-14.4-25.6-9.6-40-24-145.6 60.8-156.8-102.4 0-112 115.2-112 115.2l-3.2 12.8c-9.6 1.6-20.8 3.2-30.4 3.2-60.8-4.8-105.6-59.2-102.4-124.8 4.8-64 56-116.8 116.8-116.8 9.6 0 17.6 1.6 27.2 3.2 0-4.8 0-11.2 0-16 0-78.4-16-161.6-16-161.6 0-17.6 12.8-32 28.8-32l259.2-65.6c16 0 28.8 14.4 28.8 32 0 0 20.8 112 20.8 222.4 0 3.2-3.2 6.4-3.2 9.6 0 0 0-1.6 0-1.6-22.4 12.8-89.6 54.4-68.8 132.8-11.2-84.8 97.6-97.6 137.6-99.2 9.6 0 19.2 1.6 27.2 8 24 16 68.8 52.8 65.6 94.4z" />
<glyph unicode="&#xe906;" glyph-name="icon_empty-radio-button" d="M512 608c-176 0-320-144-320-320s144-320 320-320c176 0 320 144 320 320s-144 320-320 320zM513.6 33.6c-140.8 0-256 115.2-256 256s115.2 256 256 256 256-115.2 256-256-113.6-256-256-256z" />
<glyph unicode="&#xe907;" glyph-name="icon_grid-container" d="M200 430.4h-83.2c-17.6 0-32 14.4-32 32v70.4c0 17.6 14.4 32 32 32h83.2c17.6 0 32-14.4 32-32v-70.4c0-17.6-14.4-32-32-32zM200 220.8h-83.2c-17.6 0-32 14.4-32 32v81.6c0 17.6 14.4 32 32 32h83.2c17.6 0 32-14.4 32-32v-81.6c0-17.6-14.4-32-32-32zM200 12.8h-83.2c-17.6 0-32 14.4-32 32v80c0 17.6 14.4 32 32 32h83.2c17.6 0 32-14.4 32-32v-80c0-17.6-14.4-32-32-32zM907.2 430.4h-579.2c-17.6 0-32 14.4-32 32v67.2c0 17.6 14.4 32 32 32h579.2c17.6 0 32-14.4 32-32v-67.2c0-17.6-14.4-32-32-32zM907.2 222.4h-579.2c-17.6 0-32 14.4-32 32v78.4c0 17.6 14.4 32 32 32h579.2c17.6 0 32-14.4 32-32v-78.4c0-17.6-14.4-32-32-32zM907.2 14.4h-579.2c-17.6 0-32 14.4-32 32v76.8c0 17.6 14.4 32 32 32h579.2c17.6 0 32-14.4 32-32v-76.8c0-17.6-14.4-32-32-32z" />
<glyph unicode="&#xe908;" glyph-name="icon_grid-tile" d="M436.8-32h-212.8c-17.6 0-32 14.4-32 32v212.8c0 17.6 14.4 32 32 32h212.8c17.6 0 32-14.4 32-32v-212.8c0-17.6-14.4-32-32-32zM800-32h-212.8c-17.6 0-32 14.4-32 32v212.8c0 17.6 14.4 32 32 32h212.8c17.6 0 32-14.4 32-32v-212.8c0-17.6-14.4-32-32-32zM436.8 331.2h-212.8c-17.6 0-32 14.4-32 32v212.8c0 17.6 14.4 32 32 32h212.8c17.6 0 32-14.4 32-32v-212.8c0-17.6-14.4-32-32-32zM800 331.2h-212.8c-17.6 0-32 14.4-32 32v212.8c0 17.6 14.4 32 32 32h212.8c17.6 0 32-14.4 32-32v-212.8c0-17.6-14.4-32-32-32z" />
<glyph unicode="&#xe909;" glyph-name="icon_guides" d="M520 145.6c9.6-4.8 16-16 14.4-27.2-1.6-16-16-27.2-30.4-25.6l-174.4 22.4c-11.2 1.6-17.6 12.8-16 25.6s11.2 22.4 22.4 22.4l169.6-14.4-4.8 179.2v-3.2l-164.8-14.4c-11.2-1.6-20.8 9.6-22.4 22.4s6.4 24 16 25.6l120 16c0 0-54.4 41.6-99.2 78.4-52.8-11.2-92.8-20.8-92.8-20.8-19.2 0-33.6-16-33.6-33.6 0 0 19.2-73.6 19.2-150.4 0-83.2-19.2-169.6-19.2-169.6 0-19.2 16-33.6 33.6-33.6l304-68.8c19.2 0 33.6 16 33.6 33.6 0 0 27.2 116.8 27.2 233.6-24-22.4-76.8-72-102.4-97.6zM336 262.4l161.6 3.2 1.6-56-163.2 4.8c-11.2 0-19.2 11.2-19.2 24s8 24 19.2 24zM684.8 249.6c0 0 25.6-8 49.6-17.6-1.6-104-24-206.4-24-206.4 0-17.6-14.4-32-32-32 0 0-19.2 4.8-46.4 11.2 17.6 67.2 27.2 148.8 27.2 230.4 11.2 8 25.6 14.4 25.6 14.4zM619.2 601.6l70.4-91.2 113.6-3.2-64-94.4 32-110.4-110.4 32-94.4-64-3.2 113.6-89.6 70.4 107.2 38.4 38.4 108.8z" />
<glyph unicode="&#xe90a;" glyph-name="icon_home" d="M324.8 318.4c-17.6-1.6-32-14.4-30.4-30.4 0 0 24-59.2 28.8-123.2 6.4-68.8-6.4-140.8-6.4-140.8 1.6-16 17.6-27.2 35.2-25.6l296-28.8c17.6 1.6 32 14.4 30.4 30.4 0 0 17.6 97.6 9.6 193.6-8 92.8-41.6 182.4-41.6 182.4-1.6 16-17.6 27.2-35.2 25.6l-286.4-83.2zM438.4-9.6c4.8 27.2 8 54.4 6.4 78.4-3.2 51.2-8 100.8-8 100.8-1.6 14.4 9.6 28.8 25.6 28.8l54.4 4.8c14.4 1.6 28.8-9.6 28.8-25.6 0 0 3.2-51.2 8-104 1.6-27.2-1.6-62.4-4.8-94.4zM283.2 120c116.8 30.4 331.2 84.8 462.4 118.4 94.4 20.8 35.2 88 16 102.4-118.4 92.8-305.6 241.6-305.6 241.6-78.4 65.6-96-19.2-96-19.2s-80-232-126.4-368c-17.6-57.6-1.6-88 49.6-75.2zM568 291.2l-12.8 246.4c-1.6 20.8 16 40 38.4 40s40-16 40-38.4l1.6-246.4c0-16-14.4-27.2-32-28.8-19.2 1.6-35.2 12.8-35.2 27.2z" />
<glyph unicode="&#xe90b;" glyph-name="icon_news" d="M788.8 499.2l-264-131.2h-30.4l-262.4 132.8-36.8-3.2 78.4-403.2 217.6-121.6 36.8-1.6 225.6 118.4 76.8 404.8-41.6 4.8zM473.6 41.6l-156.8 102.4-48 273.6 204.8-128v-248zM710.4 144l-158.4-105.6v251.2l204.8 131.2-46.4-276.8zM254.4 318.4c36.8 0 65.6-28.8 65.6-64s-28.8-64-65.6-64c-36.8 0-65.6 28.8-65.6 64s28.8 64 65.6 64zM769.6 318.4c36.8 0 65.6-28.8 65.6-64s-28.8-64-65.6-64-65.6 28.8-65.6 64c0 35.2 28.8 64 65.6 64zM512 603.2c78.4 0 144-49.6 168-116.8-84.8-44.8-168-86.4-168-86.4s-108.8 54.4-168 84.8c22.4 68.8 89.6 118.4 168 118.4z" />
<glyph unicode="&#xe90c;" glyph-name="icon_printer-icon" d="M331.2 35.2h310.4v-62.4h-310.4v62.4zM268.8 720h497.6v-124.8h62.4v124.8c0 33.6-27.2 62.4-62.4 62.4h-497.6c-33.6 0-62.4-27.2-62.4-62.4v-124.8h62.4v124.8zM331.2 160h372.8v-62.4h-372.8v62.4zM953.6 532.8h-872c-33.6 0-62.4-27.2-62.4-62.4v-372.8c0-33.6 27.2-62.4 62.4-62.4h124.8v-187.2c0-33.6 27.2-62.4 62.4-62.4h497.6c33.6 0 62.4 27.2 62.4 62.4v187.2h124.8c33.6 0 62.4 27.2 62.4 62.4v372.8c0 35.2-28.8 62.4-62.4 62.4zM766.4-152h-497.6v374.4h497.6v-374.4zM891.2 345.6c-33.6 0-62.4 27.2-62.4 62.4 0 33.6 27.2 62.4 62.4 62.4 33.6 0 62.4-27.2 62.4-62.4 0-33.6-28.8-62.4-62.4-62.4z" />
<glyph unicode="&#xe90d;" glyph-name="icon_receipt" d="M374.4 451.2h206.4v-43.2h-206.4v43.2zM374.4 369.6h206.4v-43.2h-206.4v43.2zM374.4 289.6h112v-43.2h-112v43.2zM700.8 608c0-19.2-12.8-33.6-27.2-33.6s-27.2 14.4-27.2 33.6h-30.4c0-19.2-12.8-33.6-27.2-33.6s-27.2 14.4-27.2 33.6h-30.4c0-19.2-12.8-33.6-27.2-33.6s-24 14.4-24 33.6h-30.4c0-19.2-12.8-33.6-27.2-33.6s-27.2 14.4-27.2 33.6h-30.4c0-19.2-12.8-33.6-27.2-33.6s-27.2 14.4-27.2 33.6h-44.8v-636.8h44.8c0 19.2 12.8 33.6 27.2 33.6s27.2-14.4 27.2-33.6h30.4c0 19.2 12.8 33.6 27.2 33.6s27.2-14.4 27.2-33.6h30.4c0 19.2 12.8 33.6 27.2 33.6s27.2-14.4 27.2-33.6h30.4c0 19.2 12.8 33.6 27.2 33.6s27.2-14.4 27.2-33.6h30.4c0 19.2 12.8 33.6 27.2 33.6s27.2-14.4 27.2-33.6h44.8v636.8h-48zM700.8 49.6h-387.2v467.2h387.2v-467.2z" />
<glyph unicode="&#xe90e;" glyph-name="icon_refine" d="M547.2 108.8c0-79.529-63.038-144-140.8-144s-140.8 64.471-140.8 144c0 79.529 63.038 144 140.8 144s140.8-64.471 140.8-144zM835.2 396.8c0-79.529-63.038-144-140.8-144s-140.8 64.471-140.8 144c0 79.529 63.038 144 140.8 144s140.8-64.471 140.8-144zM480 462.4c0-79.529-63.038-144-140.8-144s-140.8 64.471-140.8 144c0 79.529 63.038 144 140.8 144s140.8-64.471 140.8-144z" />
<glyph unicode="&#xe90f;" glyph-name="icon_reviews" d="M427.2 257.6c-91.2 65.6-78.4 192-80 195.2-48-11.2-86.4-19.2-86.4-19.2-19.2 0-35.2-16-35.2-35.2 0 0 19.2-75.2 19.2-153.6 0-84.8-19.2-171.2-19.2-171.2 0-19.2 16-35.2 35.2-35.2l310.4-68.8c19.2 0 35.2 16 35.2 35.2 0 0 22.4 100.8 27.2 209.6-24-4.8-126.4-14.4-206.4 43.2zM547.2 115.2c-1.6-16-16-27.2-32-25.6l-179.2 24c-11.2 1.6-19.2 12.8-17.6 25.6s11.2 22.4 22.4 22.4l179.2-14.4c16-1.6 28.8-16 27.2-32zM603.2 604.8c-94.4 16-184-46.4-200-140.8s46.4-184 140.8-200c94.4-16 184 46.4 200 140.8 16 92.8-46.4 182.4-140.8 200zM678.4 416c-9.6-57.6-64-96-121.6-84.8-57.6 9.6-96 64-84.8 121.6 9.6 57.6 64 96 121.6 84.8 56-9.6 94.4-64 84.8-121.6zM638.4 339.2c17.6 11.2 40 8 51.2-9.6l100.8-142.4c11.2-17.6 8-40-9.6-51.2s-40-8-51.2 9.6l-100.8 142.4c-12.8 16-8 38.4 9.6 51.2z" />
<glyph unicode="&#xe910;" glyph-name="icon_shopping-bag" d="M785.6 600h-548.8l-44.8-624h640l-46.4 624zM668.8 435.2c3.2-67.2 0-270.4-156.8-260.8-156.8-9.6-160 195.2-156.8 260.8-9.6 6.4-16 19.2-16 32 0 20.8 16 38.4 33.6 38.4 19.2 0 33.6-17.6 33.6-38.4 0-14.4-6.4-27.2-17.6-33.6-19.2-256 121.6-227.2 121.6-227.2s140.8-27.2 121.6 228.8c-9.6 6.4-16 19.2-16 32 0 20.8 16 38.4 33.6 38.4s33.6-17.6 33.6-38.4c3.2-12.8-3.2-25.6-14.4-32z" />
<glyph unicode="&#xe911;" glyph-name="icon_social-instagram" d="M750.4 473.6c-6.4 14.4-12.8 25.6-24 36.8s-22.4 17.6-36.8 24c-11.2 4.8-28.8 9.6-59.2 11.2-33.6 1.6-43.2 1.6-128 1.6s-94.4 0-128-1.6c-30.4-1.6-48-6.4-59.2-11.2-14.4-6.4-25.6-12.8-36.8-24s-17.6-22.4-24-36.8c-4.8-11.2-9.6-28.8-11.2-59.2-1.6-33.6-1.6-43.2-1.6-128s0-94.4 1.6-128c1.6-30.4 6.4-48 11.2-59.2 6.4-14.4 12.8-25.6 24-36.8s22.4-17.6 36.8-24c11.2-4.8 28.8-9.6 59.2-11.2 33.6-1.6 43.2-1.6 128-1.6s94.4 0 128 1.6c30.4 1.6 48 6.4 59.2 11.2 14.4 6.4 25.6 12.8 36.8 24s17.6 22.4 24 36.8c4.8 11.2 9.6 28.8 11.2 59.2 1.6 33.6 1.6 43.2 1.6 128s0 94.4-1.6 128c-1.6 32-6.4 48-11.2 59.2zM502.4 123.2c-89.6 0-163.2 73.6-163.2 163.2s73.6 163.2 163.2 163.2c89.6 0 163.2-73.6 163.2-163.2s-73.6-163.2-163.2-163.2zM672 417.6c-20.8 0-38.4 17.6-38.4 38.4s17.6 38.4 38.4 38.4 38.4-17.6 38.4-38.4-17.6-38.4-38.4-38.4zM608 286.4c0-58.321-47.279-105.6-105.6-105.6s-105.6 47.279-105.6 105.6c0 58.321 47.279 105.6 105.6 105.6s105.6-47.279 105.6-105.6zM512 800c-283.2 0-512-228.8-512-512s228.8-512 512-512c283.2 0 512 228.8 512 512s-228.8 512-512 512zM817.6 155.2c-1.6-33.6-6.4-57.6-14.4-76.8-8-20.8-19.2-38.4-36.8-56s-35.2-28.8-56-36.8c-20.8-8-43.2-12.8-76.8-14.4-33.6-3.2-44.8-3.2-131.2-3.2s-97.6 0-131.2 1.6c-33.6 1.6-57.6 6.4-76.8 14.4-20.8 8-38.4 19.2-56 36.8s-28.8 35.2-36.8 56c-8 20.8-12.8 43.2-14.4 76.8s-1.6 44.8-1.6 131.2 0 97.6 1.6 131.2 6.4 57.6 14.4 76.8c8 20.8 19.2 38.4 36.8 56s35.2 28.8 56 36.8c20.8 8 43.2 12.8 76.8 14.4s44.8 1.6 131.2 1.6c86.4 0 97.6 0 131.2-1.6s57.6-6.4 76.8-14.4c20.8-8 38.4-19.2 56-36.8s28.8-35.2 36.8-56c8-20.8 12.8-43.2 14.4-76.8s1.6-44.8 1.6-131.2 0-96-1.6-129.6z" />
<glyph unicode="&#xe912;" glyph-name="icon_sort" d="M625.6 128h-385.6c-27.2 0-48 22.4-48 48v384c0 27.2 20.8 48 48 48h384c25.6 0 48-20.8 48-48v-384c1.6-27.2-20.8-48-46.4-48zM832 400c0 27.2-20.8 48-48 48h-384c-27.2 0-48-20.8-48-48v-384c0-27.2 20.8-48 48-48h384c27.2 0 48 20.8 48 48v384zM768 80c0-27.2-20.8-48-48-48h-256c-27.2 0-48 20.8-48 48v256c0 27.2 20.8 48 48 48h256c27.2 0 48-20.8 48-48v-256z" />
<glyph unicode="&#xe913;" glyph-name="icon_star" d="M992 396.8l-331.2 49.6-147.2 305.6-148.8-305.6-332.8-48 240-238.4-57.6-336 297.6 158.4 296-158.4-56 336 240 236.8zM510.4 49.6l-228.8-121.6 44.8 257.6-184 184 254.4 36.8 115.2 233.6 113.6-235.2 254.4-36.8-184-182.4 43.2-257.6-228.8 121.6z" />
<glyph unicode="&#xe914;" glyph-name="icon_aol-logo" d="M512 600c-171.2 0-310.4-139.2-310.4-312s139.2-312 310.4-312 310.4 139.2 310.4 312-139.2 312-310.4 312zM643.2 339.2c-76.8 86.4-188.8 115.2-276.8 54.4-88-62.4-110.4-185.6-56-286.4l-6.4 11.2c-94.4 136-73.6 299.2 52.8 387.2s296 44.8 392-91.2l-105.6-75.2z" />
<glyph unicode="&#xe915;" glyph-name="icon_auspost-logo" d="M824 574.4c1.6 14.4-11.2 27.2-24 25.6-188.8 0-379.2 0-568 0-6.4 0-14.4 0-20.8-3.2-8-4.8-11.2-14.4-11.2-22.4 0-190.4 0-382.4 0-572.8-1.6-14.4 11.2-28.8 25.6-25.6 190.4 0 382.4 0 572.8 0 14.4-1.6 25.6 12.8 24 25.6 1.6 190.4 1.6 382.4 1.6 572.8zM440 96c-51.2 20.8-94.4 60.8-115.2 110.4-27.2 64-19.2 140.8 20.8 198.4 22.4 33.6 57.6 57.6 94.4 73.6 0-126.4 0-254.4 0-382.4zM636.8 128c-40-32-91.2-46.4-142.4-43.2 0 43.2 0 86.4 0 129.6 40 1.6 80 16 107.2 46.4 32 33.6 41.6 84.8 25.6 128-19.2 52.8-76.8 88-132.8 88 0 4.8 0 9.6 0 16 52.8 3.2 107.2-12.8 147.2-48 44.8-36.8 72-96 73.6-153.6 0-64-28.8-124.8-78.4-163.2z" />
<glyph unicode="&#xe916;" glyph-name="icon_bbq-accessories" d="M438.4 208h-67.2c-9.6 0-19.2-8-19.2-19.2v-196.8c0-9.6 6.4-16 16-16h70.4c8 0 16 8 16 16v200c0 9.6-8 16-16 16zM404.8-4.8c-12.8 0-22.4 11.2-22.4 24s9.6 24 22.4 24 22.4-11.2 22.4-24c0-12.8-9.6-24-22.4-24zM428.8 486.4c-6.4-30.4-20.8-32-25.6-30.4-4.8-1.6-19.2 0-25.6 30.4-8 40-14.4 113.6-14.4 113.6h-11.2v-156.8c4.8-38.4 33.6-36.8 33.6-36.8v-179.2h35.2v179.2c0 0 28.8-1.6 33.6 36.8v156.8h-11.2c0 0-6.4-73.6-14.4-113.6zM628.8 208h-67.2c-9.6 0-19.2-8-19.2-19.2v-196.8c0-9.6 6.4-16 16-16h70.4c8 0 16 8 16 16v200c0 9.6-6.4 16-16 16zM595.2-4.8c-12.8 0-22.4 11.2-22.4 24s9.6 24 22.4 24c12.8 0 22.4-11.2 22.4-24s-9.6-24-22.4-24zM659.2 585.6c0 8-6.4 14.4-14.4 14.4h-100.8c-8 0-14.4-6.4-14.4-14.4l-12.8-164.8c0-9.6 6.4-17.6 14.4-17.6h48l-3.2-176h36.8l-1.6 174.4h46.4c8 0 14.4 8 14.4 17.6l-12.8 166.4zM577.6 446.4c0-4.8-9.6-9.6-14.4-9.6h-14.4c-4.8 0-8 4.8-8 9.6l9.6 115.2 33.6 1.6-6.4-116.8zM641.6 436.8h-14.4c-4.8 0-14.4 3.2-14.4 9.6l-4.8 116.8 32-1.6 9.6-115.2c1.6-4.8-3.2-9.6-8-9.6z" />
<glyph unicode="&#xe917;" glyph-name="icon_cart-big-cross" d="M512 800c-283.2 0-512-228.8-512-512s228.8-512 512-512 512 228.8 512 512c0 283.2-228.8 512-512 512zM739.2 123.2c16-16 16-41.6 0-57.6s-43.2-16-59.2 0l-168 164.8-169.6-164.8c-16-16-43.2-16-59.2 0s-16 41.6 0 57.6l169.6 164.8-168 164.8c-16 16-16 41.6 0 57.6s43.2 16 59.2 0l168-164.8 169.6 164.8c16 16 43.2 16 59.2 0s16-41.6 0-57.6l-169.6-164.8 168-164.8z" />
<glyph unicode="&#xe918;" glyph-name="icon_cart-minus-sign" d="M512 800c-283.2 0-512-228.8-512-512s228.8-512 512-512 512 228.8 512 512c0 283.2-228.8 512-512 512zM795.2 240h-576c-35.2 0-64 28.8-64 64s28.8 64 64 64h576c35.2 0 64-28.8 64-64s-28.8-64-64-64z" />
<glyph unicode="&#xe919;" glyph-name="icon_cart-small-cross" d="M582.4 288l201.6 201.6c19.2 19.2 19.2 51.2 0 70.4s-51.2 19.2-70.4 0l-201.6-201.6-201.6 201.6c-19.2 19.2-51.2 19.2-70.4 0s-19.2-51.2 0-70.4l201.6-201.6-201.6-201.6c-19.2-19.2-19.2-51.2 0-70.4s51.2-19.2 70.4 0l201.6 201.6 201.6-201.6c19.2-19.2 51.2-19.2 70.4 0s19.2 51.2 0 70.4l-201.6 201.6z" />
<glyph unicode="&#xe91a;" glyph-name="icon_checkout-button-success" d="M512 600c-172.8 0-312-139.2-312-312s139.2-312 312-312c172.8 0 312 139.2 312 312s-139.2 312-312 312zM456 129.6l-118.4 118.4c-11.2 11.2-11.2 27.2-1.6 38.4l27.2 30.4c9.6 11.2 27.2 11.2 36.8 0l65.6-72 188.8 187.2c9.6 9.6 25.6 9.6 36.8 0l28.8-32c9.6-11.2 9.6-27.2 0-38.4l-230.4-232c-9.6-9.6-24-9.6-33.6 0z" />
<glyph unicode="&#xe91b;" glyph-name="icon_checkout-datepicker" d="M785.6-24h-547.2c-20.8 0-38.4 17.6-38.4 38.4v547.2c0 20.8 17.6 38.4 38.4 38.4h38.4v-116.8h156.8v116.8h156.8v-116.8h156.8v116.8h38.4c20.8 0 38.4-17.6 38.4-38.4v-545.6c0-22.4-17.6-40-38.4-40zM745.6 404.8h-467.2v-350.4h468.8v350.4zM433.6 249.6h-78.4v78.4h78.4v-78.4zM433.6 132.8h-78.4v78.4h78.4v-78.4zM550.4 249.6h-78.4v78.4h78.4v-78.4zM550.4 132.8h-78.4v78.4h78.4v-78.4zM668.8 249.6h-78.4v78.4h78.4v-78.4zM668.8 132.8h-78.4v78.4h78.4v-78.4zM628.8 600h78.4v-78.4h-78.4v78.4zM316.8 600h78.4v-78.4h-78.4v78.4z" />
<glyph unicode="&#xe91c;" glyph-name="icon_checkout-gift" d="M752 400h-224v-160h224c22.4 0 32 43.2 32 60.8v76.8c0 16-9.6 22.4-32 22.4zM224 377.6v-76.8c0-17.6 30.4-60.8 52.8-60.8h219.2v160h-219.2c-22.4 0-52.8-6.4-52.8-22.4zM240 200v-190.4c0-17.6 40-41.6 64-41.6h192v256h-192c-24 0-64-6.4-64-24zM726.4 224h-198.4v-256h198.4c24 0 41.6 24 41.6 41.6v190.4c0 17.6-17.6 24-41.6 24zM712 553.6c0 0-152 120-201.6-104 0 0-124.8 206.4-208 139.2-1.6-1.6-4.8-4.8-4.8-6.4-12.8-24-62.4-145.6 219.2-158.4-1.6-1.6 278.4 46.4 195.2 129.6zM342.4 539.2c0 0 43.2 43.2 118.4-67.2 30.4-44.8-187.2 32-118.4 67.2zM550.4 459.2c49.6 123.2 100.8 91.2 100.8 91.2 75.2-20.8-121.6-142.4-100.8-91.2z" />
<glyph unicode="&#xe91d;" glyph-name="icon_checkout-house" d="M731.2 435.2v155.2h-89.6v-88l-129.6 97.6-344-259.2 54.4-70.4 36.8 27.2v-321.6h505.6v321.6l36.8-27.2 54.4 70.4-124.8 94.4zM715.2 25.6h-113.6v185.6h-179.2v-185.6h-113.6v304l203.2 153.6 203.2-153.6v-304z" />
<glyph unicode="&#xe91e;" glyph-name="icon_checkout-price" d="M824 288c0-172.8-139.2-312-312-312s-312 139.2-312 312c0 172.8 139.2 312 312 312s312-139.2 312-312zM622.4 254.4c-4.8 11.2-9.6 19.2-17.6 27.2s-16 14.4-24 20.8c-9.6 6.4-19.2 11.2-28.8 14.4-9.6 4.8-19.2 8-28.8 12.8-9.6 3.2-17.6 8-25.6 12.8s-12.8 9.6-17.6 16c-4.8 6.4-6.4 12.8-6.4 20.8 0 4.8 1.6 11.2 3.2 16s4.8 9.6 9.6 12.8c3.2 3.2 9.6 6.4 14.4 8 6.4 1.6 12.8 3.2 20.8 3.2 9.6 0 19.2-1.6 28.8-3.2 8-3.2 16-4.8 22.4-8s11.2-6.4 16-8c4.8-3.2 8-3.2 9.6-3.2s3.2 0 4.8 1.6c1.6 1.6 1.6 3.2 3.2 4.8 0 3.2 1.6 4.8 1.6 9.6 0 3.2 0 8 0 14.4 0 4.8 0 9.6 0 12.8s0 6.4-1.6 8c0 1.6-1.6 3.2-1.6 4.8s-1.6 3.2-3.2 4.8c-1.6 1.6-6.4 4.8-11.2 6.4-6.4 3.2-12.8 4.8-19.2 8-8 1.6-16 3.2-24 4.8-1.6 0-3.2 0-4.8 0v46.4h-43.2v-46.4c-8-1.6-16-3.2-24-4.8-14.4-4.8-27.2-11.2-38.4-19.2s-19.2-19.2-25.6-32c-6.4-12.8-9.6-28.8-9.6-44.8 0-14.4 1.6-27.2 6.4-38.4s9.6-20.8 17.6-27.2c6.4-8 16-14.4 24-20.8 9.6-6.4 19.2-11.2 28.8-14.4 9.6-4.8 19.2-8 28.8-12.8 9.6-3.2 17.6-8 24-12.8s12.8-9.6 17.6-16c4.8-6.4 6.4-12.8 6.4-20.8 0-6.4-1.6-12.8-3.2-19.2-3.2-6.4-6.4-11.2-11.2-14.4s-11.2-6.4-17.6-9.6c-6.4-1.6-14.4-3.2-24-3.2-12.8 0-25.6 1.6-35.2 4.8s-19.2 6.4-27.2 9.6c-8 3.2-12.8 6.4-17.6 9.6s-8 4.8-11.2 4.8c-1.6 0-3.2 0-4.8-1.6s-3.2-3.2-3.2-4.8-1.6-4.8-1.6-9.6c0-3.2 0-8 0-14.4 0-8 0-14.4 1.6-19.2s3.2-8 4.8-11.2c3.2-1.6 6.4-4.8 11.2-8s12.8-6.4 20.8-9.6c8-3.2 17.6-4.8 28.8-8 11.2-1.6 22.4-3.2 35.2-3.2 0 0 1.6 0 1.6 0v-43.2h43.2v48c1.6 0 4.8 0 6.4 1.6 16 4.8 30.4 12.8 41.6 20.8 12.8 9.6 22.4 20.8 28.8 35.2s11.2 30.4 11.2 49.6c-4.8 12.8-6.4 25.6-11.2 36.8z" />
<glyph unicode="&#xe91f;" glyph-name="icon_checkout-question" d="M512 600c-172.8 0-312-139.2-312-312s139.2-312 312-312 312 139.2 312 312c0 172.8-139.2 312-312 312zM542.4 123.2h-57.6c-4.8 0-9.6 4.8-9.6 9.6v51.2c0 4.8 3.2 8 8 8h59.2c4.8 0 9.6-4.8 9.6-9.6v-49.6c-1.6-4.8-4.8-9.6-9.6-9.6zM616 320c-8-12.8-24-28.8-49.6-49.6-12.8-11.2-20.8-17.6-24-24s-4.8-16-4.8-33.6h-56c0 0 0 11.2 0 12.8 0 17.6 3.2 32 9.6 43.2s17.6 24 35.2 38.4c17.6 14.4 28.8 24 32 28.8 4.8 6.4 8 14.4 8 24 0 11.2-4.8 22.4-14.4 30.4s-22.4 12.8-38.4 12.8c-16 0-28.8-4.8-38.4-12.8-6.4-6.4-12.8-14.4-16-24s-12.8-16-22.4-14.4l-14.4 1.6c-14.4 1.6-22.4 16-17.6 28.8 4.8 14.4 14.4 28.8 27.2 40 20.8 17.6 48 27.2 81.6 27.2 35.2 0 62.4-9.6 83.2-27.2s30.4-40 30.4-64c0-14.4-4.8-27.2-11.2-38.4z" />
<glyph unicode="&#xe920;" glyph-name="icon_checkout-truck" d="M948.8 150.4h-52.8c0 0-16 33.6-49.6 54.4-30.4 17.6-88 27.2-142.4-4.8 0 65.6 0 235.2 0 235.2 0 16 12.8 25.6 27.2 25.6 0 0 44.8 0 83.2 0 0 0 137.6-28.8 163.2-142.4v-140.8c-1.6-14.4-14.4-27.2-28.8-27.2zM913.6 304c0 0 0 78.4-116.8 104-14.4 0-28.8 0-28.8 0v-118.4h144v14.4zM787.2 164.8c51.2 0 92.8-41.6 92.8-94.4 0-51.2-41.6-94.4-92.8-94.4s-92.8 41.6-92.8 94.4c0 52.8 41.6 94.4 92.8 94.4zM638.4 150.4c0 0-78.4 0-148.8 0-8 40-51.2 70.4-115.2 70.4-59.2 0-102.4-33.6-113.6-70.4-4.8 0-8 1.6-11.2 3.2-3.2-4.8-6.4-8-11.2-8h-59.2c-20.8 0-36.8 20.8-36.8 48 0 25.6 16 48 36.8 48h54.4v24h-110.4c-20.8 0-36.8 20.8-36.8 48 0 25.6 16 48 36.8 48h110.4v24h-36.8c-20.8 0-36.8 20.8-36.8 48 0 25.6 16 48 36.8 48h36.8v24h-148.8c-20.8 0-36.8 20.8-36.8 48 0 25.6 16 48 36.8 48h176c0 0 0 0 1.6 0h376c16 0 28.8-14.4 28.8-30.4v-387.2c0-19.2-12.8-33.6-28.8-33.6zM260.8 150.4c0 1.6 0 1.6 0 0 0 0 1.6 0 1.6 0s0 0-1.6 0zM376 168c52.8 0 96-43.2 96-96s-43.2-96-96-96-96 43.2-96 96c0 52.8 43.2 96 96 96z" />
<glyph unicode="&#xe921;" glyph-name="icon_checkout-visa" d="M902.4 600h-772.8c-17.6 0-32-14.4-32-32v-531.2c0-17.6 14.4-32 32-32h772.8c17.6 0 32 14.4 32 32v531.2c0 17.6-14.4 32-32 32zM878.4 76.8c0-8-8-16-16-16h-692.8c-9.6 0-16 8-16 16v225.6h724.8v-225.6zM878.4 486.4h-724.8v43.2c0 9.6 6.4 16 16 16h692.8c8 0 16-6.4 16-16v-43.2zM696 212.8h120v-92.8h-120v92.8zM216 212.8h360v-30.4h-360v30.4zM216 153.6h180.8v-32h-180.8v32z" />
<glyph unicode="&#xe922;" glyph-name="icon_faq-nav-left" d="M272 288l480-312v624l-480-312zM712 59.2l-352 228.8 355.2 230.4-3.2-459.2z" />
<glyph unicode="&#xe923;" glyph-name="icon_faq-nav-right" d="M272 600v-624l480 312-480 312zM313.6 518.4l355.2-230.4-353.6-228.8-1.6 459.2z" />
<glyph unicode="&#xe924;" glyph-name="icon_free-return-14-days" d="M792 315.2l48-27.2-48-27.2 41.6-36.8-52.8-17.6 33.6-43.2-54.4-6.4 24-49.6-54.4 3.2 14.4-52.8-52.8 14.4 3.2-54.4-49.6 24-8-54.4-43.2 33.6-17.6-54.4-36.8 41.6-27.2-48-27.2 48-36.8-41.6-17.6 52.8-43.2-33.6-8 54.4-49.6-24 3.2 54.4-52.8-14.4 14.4 52.8-54.4-3.2 24 49.6-54.4 8 33.6 43.2-52.8 17.6 41.6 36.8-48 27.2 48 27.2-41.6 36.8 52.8 17.6-33.6 43.2 54.4 6.4-24 51.2 54.4-3.2-14.4 52.8 52.8-14.4-3.2 54.4 49.6-24 8 54.4 43.2-33.6 17.6 52.8 36.8-41.6 27.2 48 27.2-48 36.8 41.6 17.6-52.8 43.2 33.6 6.4-54.4 49.6 24-3.2-54.4 52.8 14.4-14.4-52.8 54.4 3.2-24-49.6 54.4-8-33.6-43.2 52.8-17.6-40-36.8zM513.6 524.8c-131.2 0-236.8-105.6-236.8-236.8s105.6-236.8 236.8-236.8c131.2 0 238.4 105.6 238.4 236.8s-107.2 236.8-238.4 236.8zM688 185.6l-6.4-8c0 0 0-1.6 0-1.6 0-1.6 1.6-1.6 1.6-1.6l6.4-3.2 14.4 27.2c1.6 1.6 1.6 3.2 0 3.2l-6.4 3.2-4.8-9.6-48 25.6c-1.6-1.6-3.2-3.2-3.2-4.8-1.6-1.6-1.6-3.2-1.6-3.2 0-1.6 0-1.6 0-1.6 1.6 0 1.6 0 1.6 0l46.4-25.6zM652.8 233.6c0 0 0 0 0 0l59.2-20.8c0 3.2 1.6 4.8 1.6 6.4s0 3.2 0 3.2c0 0-1.6 1.6-1.6 1.6 0 1.6 0 1.6-1.6 1.6l-56 19.2c0-3.2-1.6-4.8-1.6-6.4s0-3.2 0-4.8c-1.6 1.6-1.6 0 0 0zM704 257.6c-4.8 0-8 1.6-9.6 1.6s-4.8 3.2-6.4 4.8c-1.6 1.6-1.6 3.2-3.2 6.4 0 1.6 0 4.8 0 6.4v0l-22.4 1.6c0 0-1.6 0-1.6 0s0 0 0 1.6c0 0 0 1.6 0 3.2s0 3.2 0 6.4l62.4-3.2c0 0 1.6 0 1.6 0s0 0 0-1.6v-8c0-3.2 0-4.8-1.6-8 0-1.6-1.6-3.2-3.2-4.8s-3.2-3.2-6.4-3.2c-3.2-3.2-6.4-3.2-9.6-3.2zM715.2 272v3.2l-20.8 1.6v-1.6c0 0 0-1.6 0-1.6s1.6-1.6 1.6-1.6c1.6 0 1.6-1.6 3.2-1.6s3.2 0 6.4 0c6.4-1.6 9.6-1.6 9.6 1.6zM660.8 292.8c0 0-1.6 1.6-1.6 3.2 0 0 0 1.6 0 3.2s0 1.6 0 3.2l14.4 6.4-3.2 11.2h-12.8c0 0 0 0-1.6 0 0 0 0 0 0 0s0 0 0 1.6c0 0 0 1.6 0 1.6s0 1.6 0 3.2c0 1.6 0 3.2 0 3.2l64-3.2c1.6 0 1.6-1.6 3.2-3.2 0-1.6 0-1.6 0-3.2s0-1.6 0-1.6l-62.4-25.6c1.6-1.6 1.6-1.6 0 0zM681.6 310.4l8 3.2c1.6 1.6 4.8 1.6 8 3.2s6.4 1.6 8 3.2c-3.2 0-6.4 0-9.6 0s-6.4 0-8 0h-8l1.6-9.6zM649.6 339.2c1.6-1.6 1.6-1.6 1.6-3.2l60.8 22.4-4.8 8c0 1.6-1.6 1.6-1.6 1.6s0 0-1.6 0l-30.4-12.8c-3.2 0-4.8 0-6.4-1.6-3.2-1.6-4.8-1.6-6.4-3.2s-3.2-1.6-4.8-3.2c-1.6-1.6-3.2-3.2-4.8-3.2v0c3.2 1.6 6.4 4.8 9.6 6.4 4.8 1.6 8 4.8 11.2 8l20.8 17.6-3.2 6.4c0 1.6-1.6 1.6-1.6 1.6s0 0-1.6 0l-22.4-9.6c-3.2-1.6-8-3.2-11.2-4.8s-8-3.2-11.2-4.8v0c3.2 1.6 6.4 3.2 9.6 6.4 4.8 3.2 8 4.8 11.2 8l24 19.2-4.8 8c0 1.6-1.6 1.6-1.6 1.6s0-1.6-1.6-1.6c-6.4-4.8-12.8-9.6-17.6-14.4-3.2-1.6-4.8-4.8-8-6.4-1.6-3.2-4.8-4.8-6.4-6.4s-4.8-3.2-6.4-4.8c-1.6-1.6-3.2-3.2-4.8-4.8s-3.2-1.6-3.2-3.2c0 0 0-1.6 0-3.2s1.6-3.2 1.6-3.2c0 0 1.6-1.6 1.6-1.6 1.6 0 1.6-1.6 1.6-1.6s1.6-1.6 1.6-1.6l14.4 4.8c1.6 0 3.2 1.6 4.8 1.6 3.2 0 4.8 0 6.4 1.6 3.2 1.6 4.8 1.6 6.4 3.2s3.2 3.2 4.8 3.2c-1.6-1.6-3.2-1.6-4.8-3.2-1.6 0-3.2-1.6-4.8-3.2-1.6 0-3.2-1.6-4.8-3.2s-3.2-1.6-4.8-3.2l-8-6.4c-1.6 0-3.2-1.6-3.2-3.2-1.6 0-1.6-1.6 0-3.2 1.6 0 1.6-1.6 1.6-1.6 1.6 0 1.6-1.6 1.6-1.6 1.6 0 1.6-1.6 1.6-1.6zM660.8 422.4c1.6 0 3.2 1.6 3.2 1.6 0 1.6 0 3.2 0 4.8-1.6 3.2-3.2 4.8-6.4 8s-8 4.8-11.2 4.8c-3.2 0-6.4-1.6-9.6-4.8 0-1.6-1.6-1.6-1.6-3.2s-1.6-1.6-1.6-3.2c-1.6 0-1.6-1.6-1.6-3.2s0-3.2 0-4.8l-1.6-14.4c0-3.2-1.6-4.8-1.6-6.4 0 0 0-1.6-1.6-3.2s-3.2-3.2-4.8-3.2c-1.6-1.6-3.2 0-4.8 1.6-1.6 0-3.2 1.6-3.2 3.2-1.6 1.6-1.6 3.2-1.6 4.8 0 0-1.6-1.6-3.2-1.6s-3.2-1.6-3.2-1.6c0-1.6 0-3.2 0-4.8 0-3.2 1.6-4.8 4.8-8 1.6-3.2 4.8-4.8 6.4-4.8s4.8 0 6.4 0c3.2 1.6 4.8 1.6 6.4 3.2s3.2 3.2 4.8 4.8c0 1.6 1.6 1.6 1.6 3.2s1.6 1.6 1.6 3.2c1.6 0 1.6 1.6 1.6 3.2s0 3.2 0 4.8l1.6 14.4c1.6 1.6 1.6 3.2 1.6 4.8s0 1.6 1.6 3.2c0 1.6 1.6 1.6 3.2 1.6s3.2-1.6 4.8-3.2c1.6 0 1.6-1.6 3.2-3.2s1.6-3.2 1.6-3.2c1.6 0 1.6 1.6 3.2 1.6zM611.2 454.4c0 1.6 1.6 3.2 0 1.6 0 1.6 0 3.2 0 4.8-1.6 1.6-1.6 3.2-3.2 4.8s-3.2 1.6-4.8 3.2c0 0-1.6 1.6-3.2 1.6 0 1.6-1.6 1.6-3.2 1.6s-1.6 0-3.2 0c0 0-1.6-1.6-1.6-1.6-1.6 0-1.6-1.6-1.6-3.2s0-3.2 0-4.8c0 0 1.6 0 1.6 0s0 0 1.6 0c1.6-1.6 1.6-1.6 3.2-1.6 1.6-1.6 3.2-1.6 3.2-3.2 0 0 0-1.6 0-3.2s0-1.6-1.6-3.2-1.6-1.6-3.2-3.2-3.2-1.6-4.8-3.2c-1.6 0-3.2-1.6-4.8-3.2 0 0-1.6-1.6-1.6-1.6-1.6 0-1.6-1.6-1.6-1.6-1.6-1.6-1.6-1.6-1.6-3.2 0 0 0-1.6 0-1.6s0-1.6 0-1.6c0 0 1.6 0 1.6 0s1.6 0 1.6 0c1.6-1.6 1.6-1.6 3.2-1.6s3.2 0 3.2 0 1.6 1.6 1.6 1.6c0 0 0 0 0 1.6s0 1.6 0 3.2c0 0 1.6 1.6 1.6 1.6 1.6 1.6 3.2 1.6 4.8 3.2s3.2 1.6 4.8 3.2c1.6 0 3.2 1.6 4.8 3.2 0 1.6 1.6 4.8 3.2 6.4zM585.6 420.8c0 1.6-1.6 1.6-1.6 3.2-1.6 0-3.2 0-4.8 0s-3.2-1.6-3.2-3.2c-1.6-1.6-1.6-3.2-1.6-4.8s1.6-1.6 3.2-3.2c1.6 0 3.2 0 4.8 0s3.2 1.6 3.2 3.2c0 1.6 0 3.2 0 4.8zM576 472c0 0 0 1.6 0 0l1.6 9.6-30.4 6.4c0 0-1.6 0-1.6-1.6l-1.6-8 9.6-3.2-11.2-52.8c3.2-1.6 4.8-1.6 6.4-1.6s3.2 0 3.2 0 1.6 0 1.6 0 0 1.6 0 1.6l11.2 51.2 11.2-1.6c0 0 0 0 0 0zM528 425.6c0 0 0 0 0 0l1.6 64c-3.2 0-4.8 0-6.4 0s-3.2 0-3.2 0-1.6-1.6-1.6-1.6 0-1.6 0-3.2l-1.6-59.2c3.2 0 4.8 0 6.4 0s3.2 0 4.8 0c0 0 0 0 0 0zM636.8 288c0-67.2-54.4-121.6-121.6-121.6s-121.6 54.4-121.6 121.6c0 67.2 54.4 121.6 121.6 121.6s121.6-54.4 121.6-121.6zM521.6 363.2c-24 0-44.8-11.2-59.2-28.8-1.6-3.2-3.2-3.2-3.2-1.6v4.8c0 6.4-4.8 11.2-11.2 11.2s-11.2-4.8-11.2-11.2v-38.4c0-6.4 4.8-11.2 11.2-11.2h38.4c6.4 0 11.2 4.8 11.2 11.2s-4.8 11.2-11.2 11.2c0 0-1.6 0-4.8 0-1.6 0-3.2 3.2-1.6 6.4 9.6 12.8 24 22.4 40 22.4 27.2 0 48-22.4 48-48 0-27.2-22.4-48-48-48-6.4 0-12.8-6.4-12.8-12.8s6.4-12.8 12.8-12.8c40 0 73.6 33.6 73.6 75.2 1.6 36.8-30.4 70.4-72 70.4zM499.2 424c0 0 1.6 0 0 0 1.6 1.6 1.6 1.6 1.6-1.6 0 1.6 0 1.6 0 3.2-1.6 1.6-1.6 3.2-1.6 4.8l-12.8-3.2-4.8 20.8 9.6 1.6c1.6 0 1.6 0 1.6 0s0 1.6 0 1.6 0 1.6 0 3.2c-1.6 1.6-1.6 3.2-1.6 4.8l-11.2-1.6-3.2 16 11.2 3.2c1.6 0 1.6 0 1.6 0s0 1.6 0 1.6 0 1.6 0 3.2c-1.6 1.6-1.6 3.2-1.6 4.8l-20.8-4.8c-1.6 0-1.6 0-1.6 0s0 0 0 0c0-1.6 0-1.6 0-1.6l12.8-60.8 20.8 4.8zM460.8 412.8c0 0 1.6 0 3.2-3.2 0 0 1.6 1.6 1.6 1.6l-16 62.4-8-3.2c-1.6 0-1.6-1.6-1.6-1.6s0 0 0-1.6l8-25.6c0-1.6 1.6-4.8 1.6-6.4s1.6-4.8 1.6-6.4c0-3.2 1.6-4.8 1.6-6.4s1.6-3.2 1.6-4.8c-1.6 1.6-1.6 3.2-3.2 4.8 0 1.6-1.6 3.2-3.2 4.8 0 1.6-1.6 4.8-3.2 6.4 0 3.2-1.6 4.8-3.2 6.4l-17.6 25.6-8-3.2c-1.6 0-1.6-1.6-1.6-1.6s1.6 0 1.6-1.6c4.8-6.4 8-12.8 12.8-19.2 3.2-3.2 4.8-4.8 6.4-8s3.2-4.8 4.8-8c1.6-1.6 3.2-4.8 4.8-6.4s3.2-3.2 4.8-4.8c1.6-1.6 1.6-3.2 3.2-3.2 1.6-1.6 3.2 0 4.8 0 0 1.6 1.6 1.6 1.6 1.6 0 1.6 1.6 1.6 1.6 1.6zM428.8 414.4c1.6-3.2 3.2-6.4 4.8-9.6 0-3.2 0-4.8 0-8-1.6-1.6-3.2-4.8-4.8-6.4s-4.8-3.2-6.4-3.2-4.8 0-8 0-4.8 3.2-8 6.4c-3.2 3.2-6.4 6.4-11.2 12.8-4.8 4.8-6.4 9.6-9.6 12.8-1.6 3.2-3.2 6.4-3.2 9.6s0 4.8 0 8c1.6 1.6 3.2 4.8 4.8 6.4s4.8 3.2 6.4 3.2c1.6 0 4.8 0 6.4 0 3.2-1.6 4.8-3.2 8-6.4s6.4-6.4 11.2-11.2c4.8-6.4 8-9.6 9.6-14.4zM411.2 420.8c-3.2 3.2-4.8 4.8-6.4 8-3.2 1.6-4.8 3.2-4.8 3.2-1.6 1.6-3.2 1.6-3.2 1.6-1.6 0-1.6 0-3.2-1.6 0 0-1.6-1.6-1.6-3.2s0-3.2 1.6-4.8c1.6-1.6 1.6-3.2 4.8-6.4 1.6-3.2 4.8-4.8 6.4-9.6 1.6-3.2 4.8-4.8 6.4-6.4s3.2-3.2 4.8-4.8c1.6-1.6 3.2-1.6 3.2-1.6 1.6 0 1.6 0 3.2 1.6 1.6 0 1.6 1.6 1.6 3.2s0 3.2-1.6 4.8c-1.6 1.6-1.6 3.2-3.2 6.4-3.2 3.2-6.4 6.4-8 9.6zM406.4 385.6l-9.6-11.2-43.2 33.6c-1.6-1.6-1.6-3.2-3.2-4.8 0-1.6-1.6-3.2-1.6-3.2 0-1.6 0-1.6 0-1.6 0-1.6 1.6-1.6 1.6-1.6l49.6-36.8 14.4 17.6c0 0 0 1.6 0 1.6s-1.6 1.6-1.6 1.6l-6.4 4.8zM387.2 336c-1.6 0-1.6 0 0 0l-51.2 17.6 4.8 6.4c0 0 0 1.6 0 1.6 0 1.6-1.6 1.6-1.6 1.6l-8 3.2-11.2-28.8c0 0 0-1.6 1.6-1.6l9.6-3.2 3.2 11.2 51.2-17.6c0 1.6 1.6 3.2 1.6 4.8s0 3.2 0 4.8c0 0 0 0 0 0zM326.4 312c-1.6 1.6-1.6 3.2-1.6 3.2-1.6 1.6-3.2 1.6-4.8 3.2-1.6 0-3.2 1.6-4.8 1.6-4.8 1.6-8 0-8-4.8 0-1.6 0-3.2 1.6-4.8 0 0 1.6-1.6 3.2-1.6s1.6 0 3.2 0 3.2 0 3.2 1.6c0 0 1.6 0 1.6 0s1.6 0 1.6 0c0-1.6 1.6-1.6 1.6-1.6s0-1.6 1.6-1.6c0 0 1.6 1.6 1.6 1.6 1.6 0 1.6 0 1.6 1.6 0 0-1.6 0-1.6 1.6zM376 291.2c0 1.6 0 1.6 3.2 3.2l-62.4-3.2c0-3.2 0-4.8 0-6.4s0-3.2 0-3.2 0-1.6 0-1.6c1.6 0 1.6 0 1.6 0l20.8 1.6c3.2 0 6.4 0 9.6 0s6.4 1.6 9.6 1.6c-1.6 0-3.2-1.6-4.8-1.6s-3.2-1.6-4.8-1.6c-1.6 0-3.2-1.6-4.8-1.6s-3.2-1.6-4.8-1.6l-24-11.2v-8c0-1.6 0-1.6 1.6-1.6l62.4 3.2c0 3.2 0 4.8 0 6.4s0 3.2 0 3.2 0 1.6 0 1.6-1.6 0-1.6 0l-22.4-1.6c-3.2-1.6-6.4-1.6-9.6-1.6s-8-1.6-11.2-1.6c1.6 0 3.2 1.6 4.8 1.6s3.2 1.6 4.8 1.6c1.6 0 3.2 1.6 4.8 1.6s3.2 1.6 4.8 1.6l22.4 11.2v8zM332.8 238.4c3.2 1.6 8 3.2 14.4 6.4 6.4 1.6 11.2 3.2 16 4.8 4.8 0 8 1.6 11.2 0 3.2 0 4.8-1.6 6.4-3.2s3.2-3.2 4.8-6.4c1.6-3.2 1.6-4.8 1.6-8 0-1.6-1.6-4.8-3.2-6.4s-4.8-4.8-8-6.4c-3.2-1.6-9.6-3.2-16-6.4-6.4-1.6-11.2-3.2-14.4-3.2-4.8 0-8 0-11.2 0s-4.8 1.6-6.4 3.2c-1.6 1.6-3.2 4.8-3.2 6.4-1.6 3.2-1.6 4.8-1.6 8 0 1.6 1.6 4.8 3.2 6.4 0 1.6 3.2 3.2 6.4 4.8zM332.8 220.8c0-1.6 1.6-1.6 1.6-1.6 1.6 0 3.2 0 4.8 0s4.8 0 8 1.6c3.2 1.6 6.4 1.6 11.2 3.2 3.2 1.6 6.4 1.6 8 3.2s4.8 1.6 6.4 3.2c1.6 1.6 3.2 1.6 3.2 3.2s0 1.6 0 3.2-1.6 1.6-1.6 1.6-3.2 0-4.8 0c-1.6 0-4.8 0-6.4-1.6-3.2 0-6.4-1.6-9.6-3.2s-6.4-1.6-9.6-3.2c-3.2-1.6-4.8-1.6-6.4-3.2s-3.2-1.6-3.2-3.2c-1.6 0-1.6-1.6-1.6-3.2zM350.4 192c3.2 3.2 6.4 4.8 11.2 8 9.6 6.4 19.2 9.6 24 11.2 6.4 0 11.2-1.6 14.4-6.4l6.4-9.6-51.2-35.2c0 0-1.6 0-1.6 0s-1.6 0-1.6 1.6l-4.8 8c-1.6 3.2-3.2 4.8-3.2 8 0 1.6 0 4.8 0 6.4 1.6 1.6 4.8 4.8 6.4 8zM355.2 174.4v0l38.4 22.4-1.6 1.6c0 0-1.6 1.6-1.6 1.6-1.6 0-1.6 0-4.8 0-1.6 0-4.8-1.6-8-3.2s-6.4-4.8-11.2-8c-3.2-1.6-6.4-4.8-8-6.4s-3.2-3.2-4.8-3.2c-1.6-1.6-1.6-1.6-1.6-3.2 3.2 0 3.2 0 3.2-1.6zM412.8 148.8c-6.4 0-9.6-4.8-9.6-9.6s4.8-9.6 9.6-9.6c4.8 0 9.6 4.8 9.6 9.6s-4.8 9.6-9.6 9.6zM443.2 102.4c0 0 0-1.6 0-1.6 0-1.6-1.6-3.2-1.6-4.8l20.8-6.4c1.6 0 1.6 0 1.6 0s0 0 0 0 0 0 0 0l22.4 60.8-20.8 6.4c-1.6 0-1.6 0-1.6 0-1.6 0-1.6-1.6-1.6-1.6-1.6-1.6-1.6-1.6-1.6-3.2s-1.6-3.2-1.6-4.8l12.8-3.2-6.4-19.2-9.6 3.2c-1.6 0-1.6 0-1.6 0-1.6 0-1.6-1.6-1.6-1.6-1.6-1.6-1.6-1.6-1.6-3.2s-1.6-3.2-1.6-4.8l11.2-3.2-4.8-14.4-11.2 3.2c0 0 0 0-1.6-1.6 0 1.6 0 1.6 0 0zM480 92.8c0 0 1.6 1.6 0 0 1.6 1.6 1.6 1.6 1.6 1.6l11.2-1.6 1.6 16-11.2 1.6c0 1.6 0 3.2 0 4.8s0 1.6 0 3.2c0 0 0 1.6 0 1.6s0 0 1.6 0l9.6-1.6 1.6 20.8-12.8 1.6c0 1.6 0 3.2 0 4.8s0 1.6 0 3.2c0 0 0 1.6 0 1.6s0 0 1.6 0l20.8-1.6-6.4-62.4c0 0 0 0 0-1.6 0 0 0 0 0 0s0 0-1.6 0h-17.6c0 1.6 0 3.2 0 4.8s0 3.2 0 3.2zM515.2 145.6c0 0 0 0 0 0 1.6 0 3.2 1.6 4.8 1.6s3.2 0 6.4 0c0-3.2 1.6-6.4 1.6-9.6s1.6-4.8 1.6-6.4c1.6-1.6 1.6-3.2 3.2-4.8s1.6-1.6 1.6-3.2h1.6l-3.2 22.4c0 0 0 1.6 0 1.6s0 0 1.6 0 1.6 0 3.2 0 3.2 0 6.4 0l6.4-62.4c0 0 0 0 0-1.6 0 0 0-1.6-1.6-1.6l-8-1.6c-3.2 0-4.8 0-8 0-1.6 0-4.8 1.6-6.4 1.6-1.6 1.6-3.2 3.2-4.8 4.8s-1.6 4.8-1.6 9.6c0 4.8 0 8 0 11.2 1.6 3.2 1.6 4.8 3.2 6.4-1.6 1.6-1.6 1.6-3.2 3.2s-1.6 3.2-3.2 4.8c-1.6 1.6-1.6 4.8-3.2 6.4-1.6 3.2-1.6 6.4-1.6 9.6 1.6 6.4 1.6 8 3.2 8-1.6 0-1.6 0 0 0zM531.2 102.4c0-3.2 1.6-6.4 1.6-6.4 1.6-1.6 1.6-1.6 3.2-1.6h3.2l-3.2 20.8h-1.6c0 0-1.6 0-1.6 0s-1.6-1.6-1.6-1.6c0-1.6 0-1.6 0-3.2 0-4.8 0-6.4 0-8zM560 123.2c0 0 0 0 0 0 0-1.6 0-1.6 1.6 0 0-1.6 0-1.6 0-3.2s1.6-3.2 1.6-4.8l11.2 3.2 4.8-14.4-11.2-3.2c-1.6 0-1.6 0-1.6 0s0-1.6 0-1.6 0-1.6 0-3.2 1.6-3.2 1.6-4.8l20.8 6.4c1.6 0 1.6 0 1.6 0s0 0 0 0c0 1.6 0 1.6 0 1.6l-20.8 59.2-8-3.2c-1.6 0-1.6 0-1.6 0s0 0 0 0c0-1.6 0-1.6 0-1.6l9.6-27.2-9.6-3.2zM630.4 158.4c-4.8 0-9.6-4.8-9.6-9.6s4.8-9.6 9.6-9.6c4.8 0 9.6 4.8 9.6 9.6s-4.8 9.6-9.6 9.6z" />
<glyph unicode="&#xe925;" glyph-name="icon_free-return-arrow" d="M286.4 476.8c-9.6-11.2-16-14.4-16-3.2v17.6c0 25.6-20.8 48-48 48-25.6 0-48-20.8-48-48v-163.2c0-25.6 20.8-48 48-48h163.2c25.6 0 48 20.8 48 48 0 25.6-20.8 48-48 48 0 0-8 0-17.6 0s-12.8 11.2-4.8 24c36.8 56 100.8 92.8 171.2 92.8 112 0 204.8-91.2 204.8-203.2s-91.2-203.2-204.8-203.2c-30.4 0-54.4-24-54.4-54.4s24-54.4 54.4-54.4c172.8-1.6 313.6 137.6 313.6 310.4s-140.8 312-312 312c-99.2 0-190.4-46.4-249.6-123.2z" />
<glyph unicode="&#xe926;" glyph-name="icon_genderless-silhouette" d="M387.2 315.2c0 0-33.6 17.6-38.4 59.2-1.6 16 9.6 28.8 24 33.6v0c0 0-24 172.8 129.6 188.8 3.2 0 6.4 0 8 0 25.6-1.6 147.2-20.8 129.6-192v0c12.8-1.6 24-12.8 24-25.6 0-19.2-4.8-46.4-32-62.4 0 0-14.4-60.8-64-118.4 0 0 174.4-40 243.2-110.4 9.6-9.6 14.4-32 14.4-44.8v-43.2c0-11.2-8-19.2-19.2-19.2h-584c-16 0-27.2 12.8-27.2 27.2v40c0 14.4 6.4 27.2 16 35.2 36.8 30.4 131.2 99.2 235.2 110.4 1.6 0-64 80-59.2 121.6z" />
<glyph unicode="&#xe927;" glyph-name="icon_mobile-close-icon" d="M824 566.4l-33.6 33.6-278.4-278.4-278.4 278.4-33.6-33.6 278.4-278.4-278.4-278.4 33.6-33.6 278.4 278.4 278.4-278.4 33.6 33.6-278.4 278.4z" />
<glyph unicode="&#xe928;" glyph-name="icon_nav-bbqs" d="M537.6 515.2c16 32 8 62.4-20.8 92.8 0 0 8-40-16-73.6-19.2-38.4-16-65.6 14.4-94.4-6.4 44.8 11.2 52.8 22.4 75.2zM614.4 468.8c16 32 8 62.4-20.8 92.8 0 0 8-40-16-73.6-19.2-38.4-16-65.6 14.4-94.4-8 43.2 9.6 52.8 22.4 75.2zM444.8 468.8c16 32 8 62.4-20.8 92.8 0 0 8-40-16-73.6-19.2-38.4-16-65.6 14.4-94.4-6.4 43.2 11.2 52.8 22.4 75.2zM643.2 115.2c-40 0-73.6-33.6-73.6-73.6s32-73.6 73.6-73.6 73.6 33.6 73.6 73.6c-1.6 40-33.6 73.6-73.6 73.6zM643.2 1.6c-20.8 0-38.4 17.6-38.4 40s17.6 40 38.4 40c20.8 0 38.4-17.6 38.4-40s-17.6-40-38.4-40zM788.8 361.6h-81.6c0 0 0 0 0 1.6-155.2 0-281.6-1.6-390.4 0 0 0 0 0 0-1.6h-80l-3.2-17.6 1.6-16 11.2-9.6h35.2l11.2 25.6h25.6c6.4-70.4 46.4-136 116.8-164.8l-68.8-179.2c-3.2-8 1.6-17.6 9.6-20.8l4.8-1.6c8-3.2 17.6 1.6 20.8 9.6l27.2 73.6h120l72 83.2-16 43.2c60.8 30.4 96 92.8 102.4 158.4h25.6l11.2-25.6h35.2l11.2 9.6 1.6 16-3.2 16zM579.2 102.4c-6.4-6.4-19.2-6.4-19.2-6.4h-116.8l27.2 72c12.8-3.2 27.2-3.2 41.6-3.2 20.8 0 40 3.2 57.6 8l17.6-48c0-1.6-1.6-14.4-8-22.4z" />
<glyph unicode="&#xe929;" glyph-name="icon_nav-cooktops" d="M865.6 608h-707.2c-16 0-30.4-12.8-30.4-30.4v-579.2c0-16 12.8-30.4 30.4-30.4h708.8c16 0 30.4 12.8 30.4 30.4v579.2c-1.6 17.6-14.4 30.4-32 30.4zM297.6 537.6c48 0 88-40 88-88s-38.4-88-88-88-88 40-88 88 40 88 88 88zM332.8 43.2c-75.2 0-137.6 62.4-137.6 139.2s60.8 139.2 137.6 139.2c75.2 0 137.6-62.4 137.6-139.2s-60.8-139.2-137.6-139.2zM612.8 44.8c-48 0-88 40-88 88s38.4 88 88 88 88-40 88-88c0-48-38.4-88-88-88zM590.4 291.2c-68.8 0-126.4 57.6-126.4 126.4 0 70.4 56 126.4 126.4 126.4 68.8 0 126.4-57.6 126.4-126.4-1.6-68.8-57.6-126.4-126.4-126.4zM800 40c-14.4 0-25.6 11.2-25.6 25.6s11.2 25.6 25.6 25.6c14.4 0 25.6-11.2 25.6-25.6s-11.2-25.6-25.6-25.6zM800 150.4c-14.4 0-25.6 11.2-25.6 25.6s11.2 25.6 25.6 25.6c14.4 0 25.6-11.2 25.6-25.6 0-12.8-11.2-25.6-25.6-25.6zM800 262.4c-14.4 0-25.6 11.2-25.6 25.6s11.2 25.6 25.6 25.6c14.4 0 25.6-11.2 25.6-25.6s-11.2-25.6-25.6-25.6zM612.8 73.6c33.6 0 59.2 27.2 59.2 60.8s-27.2 60.8-59.2 60.8c-33.6 0-59.2-27.2-59.2-60.8s27.2-60.8 59.2-60.8zM590.4 316.8c56 0 99.2 44.8 99.2 100.8s-44.8 100.8-99.2 100.8c-56 0-99.2-44.8-99.2-100.8s43.2-100.8 99.2-100.8zM297.6 510.4c33.6 0 59.2-27.2 59.2-60.8s-27.2-60.8-59.2-60.8c-33.6 0-59.2 27.2-59.2 60.8s25.6 60.8 59.2 60.8zM332.8 291.2c60.8 0 108.8-49.6 108.8-110.4s-48-110.4-108.8-110.4c-60.8 0-108.8 49.6-108.8 110.4 0 62.4 49.6 110.4 108.8 110.4z" />
<glyph unicode="&#xe92a;" glyph-name="icon_nav-dishwashers" d="M480 120c-12.8-8-28.8-14.4-48-14.4v-68.8h52.8c3.2 0 6.4-3.2 6.4-6.4v-6.4c0-3.2-3.2-6.4-6.4-6.4h-123.2c-3.2 0-6.4 3.2-6.4 6.4v6.4c0 3.2 3.2 6.4 6.4 6.4h52.8v68.8c-68.8 4.8-84.8 62.4-84.8 108.8l17.6 75.2h152c0 0 4.8-9.6 9.6-25.6 30.4 44.8 78.4 76.8 132.8 86.4v86.4h-457.6v-440c0-11.2 8-19.2 19.2-19.2h385.6c-56 25.6-97.6 78.4-108.8 142.4zM324.8 382.4c0 4.8 4.8 9.6 9.6 9.6h166.4c4.8 0 9.6-4.8 9.6-9.6s-4.8-9.6-9.6-9.6h-166.4c-4.8 0-9.6 4.8-9.6 9.6zM643.2 580.8c0 11.2-8 19.2-19.2 19.2h-420.8c-9.6 0-19.2-8-19.2-19.2v-124.8h459.2v124.8zM256 507.2c-9.6 0-19.2 8-19.2 19.2s8 19.2 19.2 19.2c9.6 0 19.2-8 19.2-19.2 0-9.6-8-19.2-19.2-19.2zM673.6 316.8c-91.2 0-166.4-73.6-166.4-164.8s73.6-164.8 166.4-164.8 166.4 73.6 166.4 164.8c0 91.2-73.6 164.8-166.4 164.8zM673.6 38.4c-64 0-115.2 51.2-115.2 115.2s51.2 115.2 115.2 115.2 115.2-51.2 115.2-115.2c1.6-64-51.2-115.2-115.2-115.2zM673.6 248c52.8 0 96-43.2 96-96s-43.2-96-96-96-96 43.2-96 96c0 52.8 43.2 96 96 96zM488 270.4h-126.4c0 0-12.8-17.6-14.4-54.4 0-40 14.4-92.8 76.8-92.8s76.8 51.2 76.8 91.2c0 36.8-12.8 56-12.8 56zM424 142.4c-33.6 0-48 30.4-52.8 62.4 25.6 0 76.8 0 104 0-3.2-32-16-62.4-51.2-62.4z" />
<glyph unicode="&#xe92b;" glyph-name="icon_nav-fridges" d="M625.6-32h17.6l4.8 33.6h-25.6zM379.2-32h19.2l3.2 33.6h-25.6zM352 1.6h320v195.2h-320v-195.2zM387.2 140.8c0 6.4 4.8 11.2 9.6 11.2s9.6-4.8 9.6-11.2v-46.4c0-6.4-4.8-11.2-9.6-11.2s-9.6 4.8-9.6 11.2v46.4zM644.8 608h-265.6c-14.4 0-27.2-12.8-27.2-27.2v-364.8h320v364.8c0 14.4-12.8 27.2-27.2 27.2zM406.4 281.6c0-6.4-4.8-11.2-9.6-11.2s-9.6 4.8-9.6 11.2v184c0 6.4 4.8 11.2 9.6 11.2s9.6-4.8 9.6-11.2v-184z" />
<glyph unicode="&#xe92c;" glyph-name="icon_nav-fridges-top" d="M356.8 9.6v363.2h312v-363.2h-312zM408 308.8c0 6.4-4.8 9.6-9.6 9.6s-9.6-4.8-9.6-9.6v-179.2c0-6.4 4.8-9.6 9.6-9.6s9.6 4.8 9.6 9.6v179.2zM356.8 572.8c0 14.4 11.2 27.2 27.2 27.2h257.6c14.4 0 27.2-11.2 27.2-27.2v-180.8h-312v180.8zM390.4 446.4c0-6.4 4.8-9.6 9.6-9.6s9.6 4.8 9.6 9.6v46.4c0 6.4-4.8 9.6-9.6 9.6s-9.6-4.8-9.6-9.6v-46.4zM400-24h-17.6l-3.2 33.6h25.6l-4.8-33.6zM640-24h-17.6l-3.2 33.6h25.6l-4.8-33.6z" />
<glyph unicode="&#xe92d;" glyph-name="icon_nav-heating-cooling" d="M838.4 273.6c-12.8-14.4-20.8-1.6-20.8-1.6s-49.6 83.2-97.6 104c-1.6 0-3.2 1.6-4.8 1.6-8-12.8-22.4-22.4-40-22.4 0 0-1.6 0-1.6 0 0-4.8 0-9.6 0-14.4-3.2-75.2-22.4-116.8-22.4-116.8s-3.2-22.4-20.8-20.8c-120 22.4-148.8 120-148.8 120-6.4 17.6 8 19.2 8 19.2s97.6 1.6 137.6 33.6c1.6 1.6 3.2 3.2 4.8 3.2-3.2 6.4-4.8 12.8-4.8 19.2 0 8 3.2 16 6.4 22.4-4.8 3.2-9.6 4.8-14.4 8-64 40-89.6 76.8-89.6 76.8s-17.6 14.4-8 27.2c80 92.8 179.2 68.8 179.2 68.8 19.2-3.2 12.8-17.6 12.8-17.6s-48-84.8-40-136c0-1.6 0-3.2 0-4.8 17.6 0 32-9.6 40-22.4 4.8 3.2 9.6 4.8 14.4 8 65.6 35.2 112 38.4 112 38.4s20.8 8 27.2-8c40-112-28.8-185.6-28.8-185.6zM360 86.4c0 0-68.8 17.6-67.2 113.6-27.2 1.6-46.4-32-35.2-51.2-20.8-8-30.4-54.4-1.6-80-102.4 8-112 104-112 104s-1.6 46.4 35.2 83.2c25.6-28.8 46.4-35.2 46.4-35.2s-24 51.2-14.4 99.2c14.4 73.6 110.4 116.8 110.4 116.8s-11.2-113.6 62.4-148.8c-22.4-40-1.6-84.8-1.6-84.8s30.4 19.2 38.4 68.8c12.8-12.8 30.4-52.8 35.2-97.6 9.6-78.4-96-88-96-88zM188.8 25.6l238.4 25.6c3.2 0 6.4-3.2 6.4-6.4l8-56c0-3.2-1.6-8-4.8-8l-252.8-12.8c-3.2 0-6.4 3.2-6.4 6.4l4.8 43.2c0 3.2 3.2 8 6.4 8z" />
<glyph unicode="&#xe92e;" glyph-name="icon_nav-hotoffers" d="M651.2 468.8c0 0 36.8-70.4-12.8-112-1.6 68.8-64 220.8-174.4 243.2 14.4-70.4 9.6-235.2-126.4-292.8 8 32 11.2 81.6-24 116.8-12.8-105.6-86.4-187.2-80-259.2 8-139.2 139.2-188.8 139.2-188.8s-12.8 81.6-8 123.2c4.8 41.6 75.2 97.6 83.2 156.8 43.2-12.8 35.2-104 35.2-104s70.4 113.6 43.2 172.8c185.6-116.8 107.2-336 107.2-336s153.6 64 158.4 216c4.8 152-140.8 264-140.8 264z" />
<glyph unicode="&#xe92f;" glyph-name="icon_nav-location" d="M763.2 286.4c0-1.6 1.6 3.2 0 0v0zM596.8 596.8c0 0-259.2 68.8-340.8-166.4 0 0-19.2-65.6 0-142.4 41.6-166.4 254.4-318.4 254.4-318.4s203.2 147.2 256 316.8c19.2 62.4 24 235.2-169.6 310.4zM507.2 273.6c-48 0-86.4 38.4-86.4 86.4s38.4 86.4 86.4 86.4 86.4-38.4 86.4-86.4-38.4-86.4-86.4-86.4z" />
<glyph unicode="&#xe930;" glyph-name="icon_nav-mobile-call-us" d="M331.2 328c48-96 126.4-174.4 222.4-222.4l73.6 75.2c9.6 9.6 22.4 11.2 33.6 8 38.4-12.8 78.4-19.2 120-19.2 19.2 0 33.6-14.4 33.6-33.6v-118.4c0-19.2-14.4-33.6-33.6-33.6-315.2 0-572.8 257.6-572.8 574.4 0 19.2 14.4 33.6 33.6 33.6h118.4c19.2 0 33.6-14.4 33.6-33.6 0-41.6 6.4-83.2 19.2-120 3.2-11.2 1.6-25.6-8-33.6l-73.6-76.8z" />
<glyph unicode="&#xe931;" glyph-name="icon_nav-mobile-faq" d="M520 608c-174.4 0-315.2-139.2-315.2-312s140.8-312 315.2-312 315.2 139.2 315.2 312-140.8 312-315.2 312zM523.2 16c-155.2 0-280 123.2-280 276.8 0 152 124.8 276.8 280 276.8s280-123.2 280-276.8c0-152-126.4-276.8-280-276.8zM504 176c-11.2 0-20.8-3.2-28.8-11.2s-12.8-17.6-12.8-30.4c0-12.8 4.8-22.4 12.8-30.4s17.6-11.2 28.8-11.2c11.2 0 22.4 3.2 30.4 11.2s12.8 17.6 12.8 30.4c0 12.8-4.8 22.4-12.8 30.4-9.6 6.4-19.2 11.2-30.4 11.2zM596.8 440c-8 8-19.2 16-32 22.4s-30.4 8-51.2 8c-17.6 0-33.6-1.6-51.2-6.4-16-4.8-32-9.6-44.8-17.6l17.6-48c12.8 6.4 24 11.2 35.2 14.4s22.4 4.8 35.2 4.8c16 0 27.2-3.2 35.2-11.2s11.2-17.6 11.2-28.8c0-8-1.6-16-6.4-22.4-3.2-6.4-8-14.4-14.4-20.8s-12.8-12.8-19.2-19.2c-6.4-6.4-12.8-14.4-19.2-20.8-6.4-8-11.2-16-14.4-25.6s-6.4-19.2-6.4-30.4c0-3.2 0-9.6 0-14.4s1.6 1.6 1.6-14.4h54.4c0 0-1.6 9.6-1.6 11.2s0 4.8 0 6.4c0 11.2 3.2 19.2 6.4 28.8 4.8 8 9.6 16 16 24s14.4 14.4 20.8 22.4c8 6.4 14.4 14.4 20.8 22.4s12.8 16 16 25.6c4.8 9.6 6.4 20.8 6.4 32 0 9.6-1.6 19.2-4.8 30.4 1.6 8-3.2 17.6-11.2 27.2z" />
<glyph unicode="&#xe932;" glyph-name="icon_nav-search" d="M625.6 526.4c-96 97.6-254.4 99.2-352 1.6-97.6-96-97.6-252.8-1.6-350.4 88-88 224-97.6 321.6-27.2 0-1.6 1.6-1.6 1.6-3.2l168-163.2c9.6-9.6 27.2-9.6 36.8 0l17.6 17.6c9.6 9.6 9.6 27.2 0 36.8l-168 163.2c0 0-1.6 1.6-3.2 1.6 73.6 97.6 65.6 235.2-20.8 323.2zM576 222.4c-72-70.4-187.2-70.4-257.6 1.6s-70.4 187.2 1.6 257.6c72 70.4 187.2 70.4 257.6-1.6 72-72 70.4-187.2-1.6-257.6z" />
<glyph unicode="&#xe933;" glyph-name="icon_nav-shoppingcart" d="M808 217.6l70.4 219.2c1.6 6.4 1.6 12.8-3.2 17.6-3.2 4.8-9.6 8-14.4 8l-532.8 36.8-17.6 84.8c-1.6 9.6-9.6 16-19.2 16h-128c-11.2 0-19.2-9.6-19.2-20.8s9.6-20.8 19.2-20.8h112l70.4-340.8c0 0 1.6-6.4 1.6-8 8-48 25.6-81.6 52.8-104-17.6-12.8-28.8-35.2-28.8-59.2 0-40 33.6-73.6 73.6-73.6s73.6 33.6 73.6 73.6c0 11.2-3.2 22.4-8 33.6h171.2c-4.8-9.6-8-20.8-8-33.6 0-40 33.6-73.6 73.6-73.6s73.6 33.6 73.6 73.6-33.6 73.6-73.6 73.6c-3.2 0-4.8 0-8 0h-260.8c-35.2 0-72 9.6-89.6 81.6h400c9.6 3.2 16 8 19.2 16zM444.8 16c-17.6 0-33.6 14.4-33.6 33.6s14.4 33.6 33.6 33.6c17.6 0 33.6-14.4 33.6-33.6-1.6-19.2-16-33.6-33.6-33.6zM745.6 16c-17.6 0-33.6 14.4-33.6 33.6 0 17.6 12.8 32 28.8 33.6h8c16-1.6 28.8-16 28.8-33.6 0-19.2-14.4-33.6-32-33.6zM814.4 368h-86.4l9.6 62.4 96-6.4-19.2-56zM380.8 244.8l-17.6 83.2h70.4l11.2-83.2h-64zM475.2 328h83.2v-83.2h-72l-11.2 83.2zM468.8 368l-11.2 81.6 100.8-6.4v-75.2h-89.6zM598.4 328h84.8l-11.2-83.2h-72l-1.6 83.2zM598.4 368v72l99.2-6.4-9.6-65.6h-89.6zM417.6 452.8l11.2-84.8h-73.6l-19.2 89.6 81.6-4.8zM712 244.8l11.2 83.2h78.4l-27.2-83.2h-62.4z" />
<glyph unicode="&#xe934;" glyph-name="icon_nav-small-appliances" d="M552 134.4c-41.6 0-75.2-33.6-75.2-75.2s33.6-75.2 75.2-75.2c41.6 0 75.2 33.6 75.2 75.2s-33.6 75.2-75.2 75.2zM552 19.2c-22.4 0-40 17.6-40 40s17.6 40 40 40c22.4 0 40-17.6 40-40s-17.6-40-40-40zM646.4 372.8c0 0 4.8-6.4 12.8-6.4 54.4 0 262.4 0 313.6 0 6.4 0 12.8 6.4 12.8 6.4v16h-339.2v-16zM1014.4 579.2c-3.2 6.4-11.2 9.6-19.2 4.8l-11.2-6.4c-1.6 8-3.2 14.4-3.2 20.8-62.4 4.8-115.2-4.8-156.8-22.4 0 1.6 0 1.6 0 3.2-3.2 6.4-11.2 9.6-19.2 4.8l-38.4-22.4c-6.4-3.2-9.6-12.8-4.8-19.2 0 0 0 0 0 0-83.2-56-115.2-136-115.2-136h332.8l32 22.4c0 0-11.2 64-20.8 120l19.2 11.2c6.4 4.8 8 12.8 4.8 19.2zM827.2 433.6c-6.4 0-11.2 4.8-11.2 11.2s4.8 11.2 11.2 11.2 11.2-4.8 11.2-11.2-4.8-11.2-11.2-11.2zM824 473.6c0 6.4 4.8 9.6 9.6 9.6h62.4c6.4 0 9.6-4.8 9.6-9.6 0-6.4-4.8-9.6-9.6-9.6h-62.4c-4.8-1.6-9.6 3.2-9.6 9.6zM860.8 433.6c-6.4 0-11.2 4.8-11.2 11.2s4.8 11.2 11.2 11.2c6.4 0 11.2-4.8 11.2-11.2s-4.8-11.2-11.2-11.2zM896 433.6c-6.4 0-11.2 4.8-11.2 11.2s4.8 11.2 11.2 11.2c6.4 0 11.2-4.8 11.2-11.2s-4.8-11.2-11.2-11.2zM932.8 510.4c-11.2 0-105.6 0-148.8 0-8 0-12.8 6.4-8 16 19.2 20.8 64 56 145.6 56 9.6 0 17.6-8 19.2-16 4.8-22.4 8-36.8 9.6-41.6 1.6-8-6.4-14.4-17.6-14.4zM595.2 515.2c0 11.2-9.6 20.8-20.8 20.8s-20.8-9.6-20.8-20.8v-350.4c14.4 0 28.8-3.2 41.6-9.6v360zM528 163.2l-3.2 376-68.8-11.2c0 4.8-1.6 8-4.8 12.8-8 9.6-22.4 9.6-30.4 1.6l-3.2-3.2c-19.2 25.6-59.2 60.8-137.6 60.8-144 0-148.8-144-148.8-144l-3.2-28.8h9.6v-299.2c-4.8-1.6-8-6.4-8-12.8v-76.8h-41.6c-4.8 0-8-3.2-8-6.4v-6.4h-17.6c-4.8 0-8-3.2-8-6.4l-46.4-33.6c0-3.2 3.2-6.4 8-6.4h284.8c3.2 0 8 3.2 8 6.4l-40 33.6c0 3.2-3.2 6.4-8 6.4h-20.8v6.4c0 3.2-3.2 6.4-8 6.4h-48v76.8c0 8-6.4 14.4-14.4 14.4v296h14.4c0 0-8 120 100.8 120 52.8 0 78.4-28.8 88-48l-20.8-19.2c-9.6-8-9.6-22.4-1.6-30.4 6.4-6.4 16-9.6 24-6.4-36.8-54.4-75.2-134.4-80-236.8-12.8-206.4 145.6-220.8 145.6-220.8l30.4 6.4c-16 19.2-25.6 43.2-25.6 68.8 1.6 51.2 35.2 92.8 83.2 104zM371.2 49.6c-16 20.8-27.2 43.2-36.8 67.2 0 3.2 1.6 6.4 3.2 8 0 0 1.6 1.6 1.6 1.6 3.2 1.6 4.8 1.6 6.4-1.6 11.2-25.6 22.4-48 38.4-68.8 3.2-6.4-6.4-11.2-12.8-6.4zM384 348.8c-35.2-54.4-52.8-96-44.8-187.2 0-4.8-1.6-6.4-4.8-6.4-1.6 0-1.6 0-3.2 0-3.2 0-4.8 4.8-6.4 8-8 84.8 8 132.8 44.8 188.8 1.6 1.6 6.4 3.2 9.6 1.6 1.6 0 1.6 0 3.2-1.6 3.2 1.6 3.2 0 1.6-3.2zM819.2 284.8c-22.4 0-43.2-17.6-60.8-46.4h121.6c-16 28.8-38.4 46.4-60.8 46.4zM990.4 168c-11.2 56-81.6 56-102.4 56 0 0 0 1.6 0 1.6h-136v3.2c0-1.6-1.6-1.6-1.6-3.2h-46.4l19.2-76.8c-9.6-43.2-16-91.2-16-144 62.4 0 166.4 0 225.6 0 0 16 8 8 6.4 9.6v0c0-1.6 70.4 72 51.2 153.6zM801.6 51.2c0-4.8-3.2-8-8-8s-8 3.2-8 8v131.2c0 4.8 3.2 8 8 8s8-3.2 8-8v-131.2zM921.6 136c-6.4 27.2-17.6 51.2-17.6 51.2s48 4.8 54.4-27.2c9.6-41.6-25.6-88-25.6-88s-3.2 33.6-11.2 64z" />
<glyph unicode="&#xe935;" glyph-name="icon_nav-sub-accessories" d="M705.6 299.2c0-56 0-241.6 0-270.4 0-11.2 27.2-20.8 46.4-25.6 12.8-3.2 16-14.4 16-27.2h-144c0 12.8 3.2 24 16 27.2 17.6 4.8 46.4 12.8 46.4 25.6 0 27.2 0 216 0 270.4 0 20.8-62.4-6.4-62.4 36.8 0 145.6 0 240 0 240 0 12.8 11.2 24 24 24h94.4c12.8 0 24-11.2 24-24 0 0 0-94.4 0-240 1.6-41.6-60.8-16-60.8-36.8zM696 564.8c-25.6 0-46.4-20.8-46.4-46.4s20.8-46.4 46.4-46.4c25.6 0 46.4 20.8 46.4 46.4s-20.8 46.4-46.4 46.4zM696 441.6c-25.6 0-46.4-20.8-46.4-46.4s20.8-46.4 46.4-46.4c25.6 0 46.4 20.8 46.4 46.4s-20.8 46.4-46.4 46.4zM696 380.8c-8 0-14.4 6.4-14.4 14.4s6.4 14.4 14.4 14.4c8 0 14.4-6.4 14.4-14.4s-6.4-14.4-14.4-14.4zM696 504c-8 0-14.4 6.4-14.4 14.4s6.4 14.4 14.4 14.4c8 0 14.4-6.4 14.4-14.4s-6.4-14.4-14.4-14.4zM446.4 44.8c17.6-8 33.6-19.2 44.8-33.6-51.2 0-126.4 0-177.6 0 11.2 14.4 27.2 25.6 44.8 33.6-59.2 19.2-102.4 73.6-102.4 139.2 0 54.4 30.4 102.4 75.2 128 4.8 35.2 35.2 62.4 72 62.4s67.2-27.2 72-62.4c44.8-25.6 75.2-73.6 75.2-128-1.6-65.6-44.8-120-104-139.2zM403.2 283.2c-54.4 0-99.2-44.8-99.2-99.2s44.8-99.2 99.2-99.2c54.4 0 99.2 44.8 99.2 99.2s-44.8 99.2-99.2 99.2zM403.2 112c-40 0-72 32-72 72s32 72 72 72c40 0 72-32 72-72s-33.6-72-72-72zM401.6 238.4c-28.8 0-52.8-24-52.8-52.8 0-11.2 3.2-20.8 9.6-28.8-1.6 49.6 27.2 75.2 59.2 78.4-4.8 1.6-11.2 3.2-16 3.2zM289.6-4.8h232c6.4 0 11.2-4.8 11.2-9.6s-4.8-9.6-11.2-9.6h-232c-6.4 0-11.2 4.8-11.2 9.6-1.6 4.8 4.8 9.6 11.2 9.6z" />
<glyph unicode="&#xe936;" glyph-name="icon_nav-sub-aircons" d="M872 363.2c0-11.2-9.6-20.8-22.4-20.8h-676.8c-12.8 0-22.4 9.6-22.4 20.8l-16 236.8h752l-14.4-236.8zM833.6 449.6h-641.6c-8 0-12.8-6.4-12.8-11.2s6.4-11.2 12.8-11.2h641.6c8 0 12.8 6.4 12.8 11.2s-6.4 11.2-12.8 11.2zM833.6 406.4h-641.6c-8 0-12.8-6.4-12.8-11.2s6.4-11.2 12.8-11.2h641.6c8 0 12.8 6.4 12.8 11.2s-6.4 11.2-12.8 11.2zM390.4 198.4c0-9.6 0-17.6 0-28.8-17.6 0-33.6-14.4-33.6-32s14.4-32 33.6-32 33.6 14.4 33.6 32c0 9.6 0 155.2 0 155.2h28.8c0 0 0-137.6 0-155.2 0-33.6-27.2-60.8-62.4-60.8s-62.4 27.2-62.4 60.8c0 33.6 27.2 60.8 62.4 60.8zM526.4 36.8c0-17.6 14.4-32 33.6-32s33.6 14.4 33.6 32c0 17.6-14.4 32-33.6 32 0 11.2 0 19.2 0 28.8 35.2 0 62.4-27.2 62.4-60.8s-27.2-60.8-62.4-60.8-62.4 27.2-62.4 60.8c0 17.6 0 198.4 0 198.4h28.8c0 0 0-188.8 0-198.4zM574.4 196.8c0 17.6 0 94.4 0 94.4h28.8c0 0 0-84.8 0-94.4 0-17.6 14.4-32 33.6-32 17.6 0 33.6 14.4 33.6 32s-14.4 32-33.6 32c0 11.2 0 19.2 0 28.8 35.2 0 62.4-27.2 62.4-60.8s-27.2-60.8-62.4-60.8c-35.2 0-62.4 27.2-62.4 60.8z" />
<glyph unicode="&#xe937;" glyph-name="icon_nav-sub-airtreatment" d="M187.2 420.8c0 0 68.8 75.2 252.8 25.6 1.6 0 1.6 0 3.2 0 16 0 158.4-4.8 104 89.6-3.2 4.8-4.8 11.2-11.2 14.4l-14.4 8-3.2 12.8c-3.2 16 11.2 32 27.2 28.8 33.6-6.4 78.4-32 72-116.8-1.6-30.4-25.6-68.8-52.8-78.4-48-19.2-99.2 9.6-193.6 12.8-156.8 6.4-158.4-16-158.4-16l-25.6 19.2zM136 283.2c0 0 124.8 204.8 395.2 3.2 3.2-1.6 6.4-4.8 9.6-6.4 28.8-14.4 168-78.4 278.4 3.2 115.2 84.8 62.4 236.8-25.6 230.4-64-4.8-83.2-76.8-76.8-140.8 1.6-19.2-14.4-35.2-33.6-35.2l-27.2 3.2c0 0-38.4 227.2 148.8 232s164.8-193.6 144-232c-24-41.6-91.2-144-241.6-161.6-158.4-17.6-411.2 236.8-500.8 104h-70.4zM64 128c0 0 198.4 308.8 411.2 52.8 1.6-1.6 3.2-3.2 4.8-6.4 11.2-19.2 81.6-120-30.4-192-19.2-12.8-59.2-4.8-80-1.6-68.8 12.8-124.8 118.4-24 169.6 0 0-36.8-120 57.6-124.8 73.6-4.8 43.2 188.8-108.8 195.2-4.8 0-115.2 24-185.6-80-4.8-6.4-11.2-9.6-17.6-11.2l-27.2-1.6z" />
<glyph unicode="&#xe938;" glyph-name="icon_nav-sub-audio" d="M664-24h-304c-17.6 0-32 14.4-32 30.4v563.2c0 17.6 14.4 30.4 32 30.4h304c17.6 0 32-14.4 32-30.4v-563.2c0-16-14.4-30.4-32-30.4zM470.4 560c-51.2 0-92.8-41.6-92.8-94.4s41.6-94.4 92.8-94.4c51.2 0 92.8 41.6 92.8 94.4s-41.6 94.4-92.8 94.4zM516.8 318.4c-75.2 0-136-62.4-136-139.2s60.8-139.2 136-139.2 136 62.4 136 139.2c0 76.8-60.8 139.2-136 139.2zM516.8 134.4c-24 0-44.8 20.8-44.8 44.8 0 25.6 19.2 44.8 44.8 44.8 24 0 44.8-20.8 44.8-44.8s-20.8-44.8-44.8-44.8zM470.4 438.4c-16 0-28.8 12.8-28.8 28.8s12.8 28.8 28.8 28.8 28.8-12.8 28.8-28.8-12.8-28.8-28.8-28.8z" />
<glyph unicode="&#xe939;" glyph-name="icon_nav-sub-bbqrangehoods" d="M224 297.6v78.4h576v-78.4h-576zM409.6 443.2h206.4l184-52.8h-576l185.6 52.8zM422.4 600c56 0 3.2 0 184 0l28.8-142.4h-240l27.2 142.4zM459.2 180.8c-9.6-16-20.8-22.4-16-54.4-22.4 20.8-25.6 41.6-11.2 68.8 16 24 11.2 52.8 11.2 52.8 20.8-22.4 28.8-43.2 16-67.2zM526.4 214.4c-9.6-16-20.8-22.4-16-54.4-22.4 20.8-25.6 41.6-11.2 68.8 16 24 11.2 52.8 11.2 52.8 20.8-22.4 27.2-43.2 16-67.2zM580.8 180.8c-9.6-16-20.8-22.4-16-54.4-22.4 20.8-25.6 41.6-11.2 68.8 16 24 11.2 52.8 11.2 52.8 22.4-22.4 28.8-43.2 16-67.2zM366.4 110.4c0 3.2 0 4.8 0 8 78.4 0 171.2 0 281.6 0 0-3.2 0-4.8 0-8h59.2l3.2-9.6v-9.6l-8-4.8h-25.6l-8 14.4h-19.2c-8-65.6-56-124.8-140.8-124.8s-132.8 59.2-140.8 124.8h-19.2l-8-14.4h-25.6l-8 4.8v9.6l3.2 9.6h56z" />
<glyph unicode="&#xe93a;" glyph-name="icon_nav-sub-beveragefridge" d="M683.2-24c-27.2 1.6-56 1.6-110.4 1.6-112-1.6-278.4 0-278.4 0-8 0-14.4 6.4-14.4 14.4v608h408c0 0 0-70.4 0-164.8 0-1.6 0-4.8 0-6.4h4.8c0 0 0-8 0-35.2 0 0-1.6-1.6-4.8-1.6 0-3.2 0-8 0-11.2 3.2 0 4.8 0 4.8 0 0-28.8 0-57.6 0-73.6 11.2-1.6 16-3.2 16-3.2 25.6-28.8 33.6-60.8 33.6-60.8v-265.6l-59.2-1.6zM662.4 433.6c0 78.4 0 139.2 0 139.2h-356.8v-510.4c0-11.2 8-20.8 17.6-20.8 0 0 156.8 0 252.8 0 6.4 0 14.4-1.6 19.2-3.2v204.8c1.6 24 33.6 60.8 33.6 60.8l16 3.2c0 17.6 0 46.4 0 73.6 0 0 9.6 0 17.6 0 0 3.2 0 8 0 11.2-8 0-17.6 0-17.6 0 0 12.8 0 36.8 0 36.8h17.6c0 1.6 0 3.2 0 4.8zM595.2 273.6c-80 0-262.4 0-262.4 0v64h300.8l-19.2-49.6c0 0-9.6-14.4-19.2-14.4zM332.8 440h300.8v-64h-300.8v64zM332.8 542.4h300.8v-64h-300.8v64zM574.4 172.8l-241.6-1.6v64l243.2-3.2-1.6-59.2zM576 67.2h-243.2v64l243.2-1.6v-62.4z" />
<glyph unicode="&#xe93b;" glyph-name="icon_nav-sub-camera" d="M828.8-24h-633.6c-49.6 0-91.2 40-91.2 89.6v356.8c0 49.6 40 89.6 91.2 89.6v0c0 16 14.4 28.8 30.4 28.8h121.6c16 0 28.8-12.8 30.4-27.2h86.4l65.6 86.4h180.8l59.2-86.4 62.4-1.6c49.6 0 91.2-40 91.2-89.6v-356.8c-3.2-49.6-43.2-89.6-94.4-89.6zM270.4 420.8h-30.4c-25.6 0-44.8-19.2-44.8-44.8 0-24 20.8-44.8 44.8-44.8h30.4c25.6 0 44.8 19.2 44.8 44.8s-19.2 44.8-44.8 44.8zM603.2 481.6c-124.8 0-227.2-99.2-227.2-224 0-123.2 100.8-224 227.2-224 124.8 0 227.2 99.2 227.2 224 0 123.2-102.4 224-227.2 224zM603.2 112c-81.6 0-147.2 65.6-147.2 145.6s65.6 145.6 147.2 145.6 147.2-65.6 147.2-145.6-65.6-145.6-147.2-145.6zM601.6 361.6c-57.6 0-105.6-46.4-105.6-104s46.4-104 105.6-104c57.6 0 105.6 46.4 105.6 104-1.6 57.6-48 104-105.6 104z" />
<glyph unicode="&#xe93c;" glyph-name="icon_nav-sub-coffeemachines" d="M310.4-24c-51.2 0-94.4 40-94.4 91.2v441.6c0 49.6 41.6 91.2 94.4 91.2h281.6v-68.8h148.8c0 0 19.2-3.2 28.8-16 9.6-11.2 8-30.4 8-30.4v-76.8h-28.8v-54.4h-100.8v54.4h-57.6v-348.8c0 0 107.2 0 169.6 0 22.4 0 46.4-19.2 46.4-46.4 0-19.2 0-35.2 0-35.2h-496zM409.6 299.2c-16 0-30.4-12.8-30.4-28.8s12.8-28.8 30.4-28.8c16 0 30.4 12.8 30.4 28.8s-12.8 28.8-30.4 28.8zM409.6 174.4c-30.4 0-54.4-24-54.4-52.8s24-52.8 54.4-52.8c30.4 0 54.4 24 54.4 52.8 0 30.4-24 52.8-54.4 52.8zM713.6 337.6v-136h-27.2v136h27.2zM742.4 89.6l-4.8-22.4h-80l-30.4 116.8h132.8l-3.2-19.2h38.4l9.6-27.2-14.4-25.6-48-22.4zM774.4 150.4l-12.8-6.4-3.2-24 16 4.8 6.4 16-6.4 9.6z" />
<glyph unicode="&#xe93d;" glyph-name="icon_nav-sub-cooker" d="M896 353.6l-16 17.6-38.4 8v-310.4c0-35.2-8-91.2-70.4-91.2h-512c-56 0-78.4 49.6-78.4 91.2v308.8l-36.8-8-16-17.6-32 8v38.4h86.4v11.2h659.2v-11.2h86.4v-38.4l-32-6.4zM588.8 216c0 9.6-8 17.6-19.2 17.6h-115.2c-11.2 0-19.2-8-19.2-17.6v-121.6c0-9.6 8-17.6 19.2-17.6h115.2c11.2 0 19.2 8 19.2 17.6v121.6zM524.8 107.2h-25.6c-6.4 0-12.8 9.6-12.8 20.8s4.8 20.8 12.8 20.8h25.6c6.4 0 12.8-9.6 12.8-20.8 0-12.8-6.4-20.8-12.8-20.8zM184 436.8v0c0 0 0-1.6 0 0v0zM224 465.6c0 0 132.8 70.4 288 70.4s289.6-70.4 289.6-70.4c22.4 0 38.4-12.8 40-30.4h-657.6c0 17.6 17.6 30.4 40 30.4zM841.6 436.8v0c0-1.6 0 0 0 0v0zM454.4 600h115.2v-41.6h-115.2v41.6z" />
<glyph unicode="&#xe93e;" glyph-name="icon_nav-sub-cookingappliances" d="M185.6 608c-17.6 0-33.6-16-33.6-35.2v-571.2c0-19.2 14.4-35.2 33.6-35.2h651.2c17.6 0 33.6 16 33.6 35.2v571.2c0 19.2-14.4 35.2-33.6 35.2h-651.2zM803.2 452.8h-291.2v-270.4h20.8v-128h-20.8v84.8h-41.6v-84.8h-22.4v128h20.8c0 0 1.6 171.2 1.6 270.4h-128v-228.8c0 0 64-20.8 64-84.8s-60.8-97.6-81.6-97.6-83.2 35.2-81.6 97.6 52.8 81.6 57.6 86.4c3.2 3.2 1.6 140.8 1.6 228.8h-81.6v35.2h80c0 22.4 0 35.2 0 35.2 41.6 0 41.6 0 41.6 0v-35.2h128c0 20.8 0 35.2 0 35.2-1.6 1.6 41.6 0 41.6 0v-35.2h291.2v-36.8z" />
<glyph unicode="&#xe93f;" glyph-name="icon_nav-sub-dehydrator" d="M512 139.2c-132.8 0-227.2 22.4-240 64 0 9.6 0 27.2 0 27.2s38.4-52.8 241.6-52.8c217.6 0 238.4 56 238.4 56s0-22.4 0-30.4c-11.2-43.2-107.2-64-240-64zM512 193.6c-132.8 0-227.2 22.4-240 64 0 9.6 0 27.2 0 27.2s38.4-52.8 241.6-52.8c217.6 0 238.4 56 238.4 56s0-22.4 0-30.4c-11.2-43.2-107.2-64-240-64zM512 248c-132.8 0-240 28.8-240 65.6s107.2 65.6 240 65.6c132.8 0 240-28.8 240-65.6s-107.2-65.6-240-65.6zM512 366.4c-112 0-203.2-20.8-203.2-44.8 0-25.6 91.2-44.8 203.2-44.8s203.2 20.8 203.2 44.8c0 24-91.2 44.8-203.2 44.8zM633.6 312c-19.2 0-35.2 3.2-35.2 8s16 8 35.2 8c19.2 0 35.2-3.2 35.2-8s-16-8-35.2-8zM555.2 291.2c-19.2 0-35.2 3.2-35.2 8s16 8 35.2 8c19.2 0 35.2-3.2 35.2-8s-16-8-35.2-8zM550.4 328c-19.2 0-35.2 3.2-35.2 8s16 8 35.2 8c19.2 0 35.2-3.2 35.2-8-1.6-3.2-16-8-35.2-8zM465.6 296c-19.2 0-35.2 3.2-35.2 8s16 8 35.2 8c19.2 0 35.2-3.2 35.2-8s-16-8-35.2-8zM460.8 334.4c-19.2 0-35.2 3.2-35.2 8s16 8 35.2 8 35.2-3.2 35.2-8c0-4.8-16-8-35.2-8zM387.2 312c-19.2 0-35.2 3.2-35.2 8s16 8 35.2 8 35.2-3.2 35.2-8-14.4-8-35.2-8zM608 401.6c-32 28.8-35.2 57.6-16 94.4 24 33.6 16 73.6 16 73.6 30.4-30.4 38.4-60.8 22.4-92.8-12.8-20.8-30.4-30.4-22.4-75.2zM520 432c-32 28.8-35.2 57.6-16 94.4 24 33.6 16 73.6 16 73.6 30.4-30.4 38.4-60.8 22.4-92.8-12.8-20.8-30.4-30.4-22.4-75.2zM424 401.6c-32 28.8-35.2 57.6-16 94.4 24 33.6 16 73.6 16 73.6 30.4-30.4 38.4-60.8 22.4-92.8-12.8-20.8-30.4-30.4-22.4-75.2zM752 179.2c0 0 0-131.2 0-139.2-11.2-44.8-107.2-64-240-64s-227.2 22.4-240 64c0 9.6 0 136 0 136s38.4-52.8 241.6-52.8c217.6 0 238.4 56 238.4 56zM496 51.2c0-14.4 11.2-25.6 25.6-25.6s25.6 11.2 25.6 25.6c0 14.4-11.2 25.6-25.6 25.6s-25.6-12.8-25.6-25.6z" />
<glyph unicode="&#xe940;" glyph-name="icon_nav-sub-dryers" d="M272 459.2v129.6c0 11.2 8 19.2 19.2 19.2h441.6c11.2 0 19.2-8 19.2-19.2v-129.6h-480zM337.6 547.2c-11.2 0-20.8-9.6-20.8-20.8s9.6-20.8 20.8-20.8 20.8 9.6 20.8 20.8c1.6 11.2-8 20.8-20.8 20.8zM702.4 523.2h-110.4c-4.8 0-9.6-4.8-9.6-9.6s4.8-9.6 9.6-9.6h110.4c4.8 0 9.6 4.8 9.6 9.6 0 6.4-4.8 9.6-9.6 9.6zM752-12.8c0-11.2-8-19.2-19.2-19.2h-441.6c-11.2 0-19.2 8-19.2 19.2v449.6h480v-449.6zM592 344c-30.4-12.8-19.2-33.6-80-33.6s-49.6 20.8-80 33.6c-33.6-11.2-116.8-32-116.8-32l14.4-89.6 59.2 3.2v-174.4h246.4v174.4l52.8-4.8 19.2 89.6c1.6 1.6-83.2 22.4-115.2 33.6zM579.2 81.6c-24 24-27.2 46.4-11.2 76.8 17.6 27.2 11.2 59.2 11.2 59.2 22.4-24 30.4-49.6 16-75.2-8-16-20.8-24-16-60.8zM520 120c-24 24-27.2 46.4-11.2 76.8 17.6 27.2 11.2 59.2 11.2 59.2 22.4-24 30.4-49.6 16-75.2-8-17.6-20.8-24-16-60.8zM448 81.6c-24 24-27.2 46.4-11.2 76.8 17.6 27.2 11.2 59.2 11.2 59.2 22.4-24 30.4-49.6 16-75.2-8-16-22.4-24-16-60.8z" />
<glyph unicode="&#xe941;" glyph-name="icon_nav-sub-dvd" d="M78.4 177.6c-20.8 0-38.4-17.6-38.4-38.4v-123.2c0-20.8 17.6-38.4 38.4-38.4h867.2c20.8 0 38.4 17.6 38.4 38.4v123.2c0 20.8-17.6 38.4-38.4 38.4h-867.2zM619.2 99.2h294.4c12.8 0 24-11.2 24-24 0-14.4-11.2-24-24-24h-294.4c-12.8 0-24 11.2-24 24s11.2 24 24 24zM193.6 100.8c14.4 0 25.6-11.2 25.6-25.6s-11.2-25.6-25.6-25.6c-14.4 0-25.6 11.2-25.6 25.6-1.6 14.4 11.2 25.6 25.6 25.6zM115.2 100.8c14.4 0 25.6-11.2 25.6-25.6s-11.2-25.6-25.6-25.6c-14.4 0-25.6 11.2-25.6 25.6-1.6 14.4 11.2 25.6 25.6 25.6zM488 219.2c-104 0-188.8 84.8-188.8 190.4s84.8 190.4 188.8 190.4c104 0 188.8-84.8 188.8-190.4s-84.8-190.4-188.8-190.4zM420.8 569.6c-43.2-19.2-78.4-54.4-94.4-100.8 43.2-12.8 86.4-24 84.8-27.2 8 17.6 20.8 33.6 38.4 41.6-4.8 19.2-20.8 64-28.8 86.4zM488 476.8c-36.8 0-67.2-30.4-67.2-67.2s30.4-67.2 67.2-67.2 67.2 30.4 67.2 67.2c0 36.8-30.4 67.2-67.2 67.2zM555.2 371.2c-8-17.6-20.8-33.6-38.4-41.6 6.4-19.2 22.4-64 30.4-84.8 43.2 19.2 78.4 54.4 94.4 100.8-43.2 11.2-88 22.4-86.4 25.6zM488 366.4c-24 0-43.2 19.2-43.2 43.2s19.2 43.2 43.2 43.2c24 0 43.2-19.2 43.2-43.2s-19.2-43.2-43.2-43.2zM230.4 600c-105.6 0-190.4-84.8-190.4-190.4s86.4-190.4 190.4-190.4c104 0 188.8 84.8 188.8 190.4s-84.8 190.4-188.8 190.4zM257.6 329.6c17.6 9.6 32 24 38.4 41.6-1.6-3.2 43.2-14.4 84.8-27.2-16-44.8-51.2-81.6-94.4-100.8-4.8 20.8-20.8 67.2-28.8 86.4zM68.8 468.8c16 44.8 51.2 81.6 94.4 100.8 8-20.8 22.4-67.2 30.4-84.8-17.6-9.6-32-24-38.4-41.6 0 1.6-44.8 12.8-86.4 25.6zM230.4 476.8c36.8 0 67.2-30.4 67.2-67.2s-30.4-67.2-67.2-67.2c-36.8 0-67.2 30.4-67.2 67.2s30.4 67.2 67.2 67.2zM230.4 452.8c24 0 43.2-19.2 43.2-43.2s-19.2-43.2-43.2-43.2-43.2 19.2-43.2 43.2c0 24 19.2 43.2 43.2 43.2z" />
<glyph unicode="&#xe942;" glyph-name="icon_nav-sub-fans" d="M758.4 83.2c-19.2-22.4-33.6-3.2-33.6-3.2s-40 112-116.8 142.4c-33.6 14.4-22.4 52.8-22.4 65.6 0 11.2 16 38.4 65.6 65.6 104 54.4 116.8 44.8 116.8 44.8s24 1.6 35.2-22.4c64-177.6-44.8-292.8-44.8-292.8zM504 208c-40 0-72 32-72 70.4 0 40 32 72 72 72s72-32 72-72c0-38.4-32-70.4-72-70.4zM499.2 396.8c4.8-35.2-9.6-36.8-22.4-43.2-9.6-6.4-62.4-12.8-110.4 22.4-94.4 68.8-88 72-88 72s-27.2 22.4-11.2 43.2c108.8 124.8 240 112 270.4 107.2 4.8 0 8-3.2 11.2-6.4v0c9.6-12.8 9.6-28.8 0-40-19.2-33.6-57.6-97.6-49.6-155.2zM390.4 201.6c28.8 20.8 60.8 9.6 70.4 3.2s40-12.8 38.4-68.8c-3.2-116.8-24-137.6-24-137.6s-16-25.6-41.6-22.4c-187.2 35.2-232 185.6-232 185.6-9.6 28.8 14.4 30.4 14.4 30.4s108.8-40 174.4 9.6z" />
<glyph unicode="&#xe943;" glyph-name="icon_nav-sub-floorcare" d="M800 102.4l-139.2-123.2c-12.8 0-65.6-12.8-88 12.8l-334.4 110.4c-40 19.2-14.4 81.6-1.6 81.6 0 0 118.4 27.2 264 27.2l-32 75.2c-28.8-8-83.2 24-88 40 0 0-62.4 192-88 273.6 89.6-1.6 176-3.2 196.8-6.4 28.8-88 64-200 64-200 4.8-14.4-11.2-67.2-35.2-83.2l41.6-100.8c113.6-6.4 228.8-25.6 228.8-25.6 14.4 0 27.2-68.8 11.2-81.6zM763.2 161.6c0 0 17.6 3.2-17.6 8-52.8 6.4 30.4-12.8-132.8-81.6-48-4.8-310.4 38.4-272 96-19.2-3.2-80-22.4-80-22.4-12.8 0-28.8-33.6-11.2-43.2l316.8-105.6c20.8-20.8 68.8-9.6 81.6-9.6l128 102.4c12.8 9.6 1.6 56-12.8 56zM752 236.8c-40 38.4-46.4 72-20.8 120 30.4 43.2 20.8 92.8 20.8 92.8 38.4-38.4 51.2-76.8 28.8-116.8-16-27.2-38.4-38.4-28.8-96zM651.2 286.4c-40 38.4-46.4 72-20.8 120 30.4 43.2 20.8 92.8 20.8 92.8 38.4-38.4 51.2-76.8 28.8-116.8-16-27.2-38.4-38.4-28.8-96zM292.8 321.6c-16-28.8-38.4-40-28.8-96-40 38.4-46.4 72-20.8 120 30.4 43.2 20.8 92.8 20.8 92.8 38.4-36.8 51.2-75.2 28.8-116.8z" />
<glyph unicode="&#xe944;" glyph-name="icon_nav-sub-foodwaste" d="M467.2 376c9.6-3.2 27.2-6.4 54.4 3.2 0 0 28.8-17.6 59.2 0s46.4 65.6 46.4 65.6 24 56-12.8 96c0 0-17.6 24-62.4 19.2 0 0-9.6 0-24-6.4 0 0 0 14.4 9.6 20.8 0 0 3.2 0 1.6 3.2l-4.8 8c0 0-1.6 3.2-4.8 1.6 0 0-6.4-1.6-11.2-14.4 0 0-8 33.6-68.8 35.2 0 0-1.6 0-1.6-3.2 1.6-1.6 8-25.6 22.4-32 12.8-4.8 27.2-8 44.8-9.6 0 0 0-6.4 0-9.6 0 0-40 14.4-65.6 3.2-27.2-12.8-44.8-33.6-43.2-76.8 3.2-44.8 38.4-97.6 60.8-104zM428.8 491.2c-8 1.6-3.2 14.4-3.2 14.4 14.4 43.2 52.8 41.6 52.8 41.6-35.2-19.2-36.8-44.8-36.8-44.8-4.8-12.8-12.8-11.2-12.8-11.2zM841.6 43.2l-73.6 9.6c-1.6 3.2-1.6 8-3.2 11.2l64 43.2-91.2 11.2c-1.6 3.2-4.8 6.4-6.4 9.6l1.6-1.6 51.2 59.2-91.2-12.8c-4.8 3.2-3.2 6.4-3.2 6.4l33.6 67.2-84.8-38.4 16 76.8-68.8-49.6-4.8 73.6-49.6-65.6c-3.2 0-6.4 1.6-9.6 1.6l-4.8 65.6-54.4-70.4c0 0 0 0-1.6 0l-20.8 62.4-33.6-81.6-49.6 54.4 1.6-81.6c-4.8-3.2-9.6-8-12.8-11.2l-59.2 49.6 14.4-89.6-67.2 24 43.2-75.2c-1.6-1.6-1.6-3.2-3.2-6.4l-60.8 20.8 36.8-65.6-60.8 1.6 62.4-56c0-1.6 0-3.2 0-3.2 0-16 528-32 528 0 0 0 0 11.2-1.6 17.6l64 43.2z" />
<glyph unicode="&#xe945;" glyph-name="icon_nav-sub-freezers" d="M859.2-1.6h-43.2l-6.4-22.4h-20.8l-4.8 22.4h-550.4l-6.4-22.4h-20.8l-6.4 22.4h-36.8c-11.2 0-20.8 9.6-20.8 20.8v280h736v-278.4c1.6-12.8-8-22.4-19.2-22.4zM624 158.4h-27.2l12.8 20.8-6.4 11.2h-12.8l-19.2-32h-41.6l20.8 36.8h36.8l6.4 11.2-6.4 11.2h-24l14.4 24-6.4 11.2h-12.8l-14.4-25.6-12.8 20.8h-12.8l-6.4-11.2 19.2-32-19.2-35.2-20.8 36.8 19.2 32-6.4 11.2h-12.8l-12.8-20.8-14.4 24h-12.8l-6.4-11.2 14.4-24h-24l-6.4-11.2 6.4-11.2h36.8l20.8-36.8h-41.6l-19.2 32h-12.8l-6.4-11.2 12.8-20.8h-27.2l-6.4-11.2 6.4-11.2h27.2l-12.8-20.8 6.4-11.2h12.8l19.2 32h41.6l-20.8-36.8h-36.8l-6.4-11.2 6.4-11.2h24l-14.4-24 6.4-11.2h12.8l14.4 24 12.8-20.8h12.8l6.4 11.2-19.2 32 20.8 36.8 20.8-36.8-19.2-32 6.4-11.2h12.8l12.8 20.8 14.4-24h12.8l6.4 11.2-14.4 24h24l6.4 11.2-6.4 11.2h-36.8l-20.8 36.8h41.6l19.2-32h12.8l6.4 11.2-12.8 20.8h25.6l6.4 11.2-6.4 11.2zM820.8 113.6h-49.6c-6.4 0-11.2-4.8-11.2-11.2s4.8-11.2 11.2-11.2h49.6c6.4 0 11.2 4.8 11.2 11.2-1.6 6.4-6.4 11.2-11.2 11.2zM244.8 392h48l-49.6-48 540.8 1.6-51.2 46.4h48l100.8-68.8h-737.6l100.8 68.8zM300.8 400h420.8l9.6-8h-438.4l8 8zM609.6 552v0 0zM409.6 542.4c0-6.4 4.8-11.2 11.2-11.2h188.8c6.4 0 11.2 4.8 11.2 11.2s-4.8 11.2-11.2 11.2h243.2l-97.6-137.6h-486.4l-97.6 136h249.6c-6.4 0-11.2-4.8-11.2-9.6zM171.2 600h681.6v-22.4h-681.6v22.4z" />
<glyph unicode="&#xe946;" glyph-name="icon_nav-sub-headphones" d="M856 54.4c0-6.4-6.4-12.8-14.4-11.2l-30.4-16c-6.4 0-12.8 6.4-11.2 14.4l9.6 140.8c0 6.4 6.4 12.8 14.4 11.2l28.8-19.2c6.4 0 12.8-6.4 11.2-14.4l-8-105.6zM776 401.6c0 70.4-72 97.6-72 97.6l6.4 6.4c-32 20.8-67.2 40-88 40h-214.4c-20.8 0-59.2-19.2-92.8-41.6l4.8-4.8c0 0-72-25.6-72-97.6 0-75.2 0-99.2 0-99.2h-30.4c0 0 0 35.2 0 116.8 0 22.4 8 40 17.6 54.4 0 1.6-1.6 4.8-3.2 6.4 52.8 67.2 124.8 120 222.4 120h126.4c92.8 0 148.8-54.4 203.2-113.6-1.6-1.6-1.6-1.6-1.6-3.2 14.4-16 25.6-36.8 25.6-65.6 0-83.2 0-116.8 0-116.8h-30.4c-1.6 0-1.6 24-1.6 100.8zM211.2 27.2l-30.4 16c-6.4 0-12.8 4.8-14.4 11.2l-6.4 104c0 6.4 4.8 12.8 11.2 14.4l28.8 19.2c6.4 0 12.8-4.8 14.4-11.2l9.6-140.8c0-6.4-4.8-12.8-12.8-12.8zM256 246.4l52.8 36.8c12.8 1.6 24-9.6 25.6-22.4l17.6-259.2c1.6-12.8-9.6-24-22.4-25.6l-57.6 28.8c-12.8-1.6-24 9.6-25.6 22.4l-12.8 195.2c-1.6 12.8 9.6 24 22.4 24zM715.2 283.2l52.8-36.8c12.8-1.6 22.4-12.8 22.4-25.6l-14.4-195.2c-1.6-12.8-12.8-22.4-25.6-22.4l-57.6-28.8c-12.8 1.6-22.4 12.8-22.4 25.6l17.6 259.2c3.2 14.4 14.4 24 27.2 24z" />
<glyph unicode="&#xe947;" glyph-name="icon_nav-sub-heaters" d="M662.4-24c-14.4 0-25.6 9.6-25.6 22.4s11.2 22.4 25.6 22.4c14.4 0 25.6-9.6 25.6-22.4s-11.2-22.4-25.6-22.4zM654.4 35.2v0c-9.6 0-17.6 6.4-17.6 14.4 0 0-9.6 20.8-9.6 52.8 0 3.2 0 6.4 0 9.6h-28.8c0-3.2 0-6.4 0-9.6 0-32-11.2-54.4-11.2-54.4 0-8-8-14.4-16-14.4v0c-9.6 0-16 6.4-16 14.4 0 0-9.6 20.8-9.6 52.8 0 3.2 0 6.4 0 9.6h-33.6c0-3.2 0-6.4 0-9.6 0-32-11.2-54.4-11.2-54.4 0-8-8-14.4-16-14.4v0c-9.6 0-16 6.4-16 14.4 0 0-9.6 20.8-9.6 52.8 0 3.2 0 6.4 0 9.6h-28.8c0-3.2 0-6.4 0-9.6 0-32-11.2-54.4-11.2-54.4 0-8-8-14.4-16-14.4h-11.2c-9.6 0-16 6.4-16 14.4 0 0-11.2 20.8-11.2 52.8 0 22.4 0 49.6 0 78.4h-12.8c-9.6 0-16 6.4-16 14.4v176c0 8 8 14.4 16 14.4h11.2c1.6 0 3.2 0 6.4-1.6 1.6 0 3.2 1.6 6.4 1.6h33.6c9.6 0 16-6.4 16-14.4 0 0 0-30.4 0-73.6h28.8c0 3.2 0 6.4 0 9.6 0 38.4 9.6 64 9.6 64 0 8 8 14.4 16 14.4v0c9.6 0 16-6.4 16-14.4 0 0 11.2-27.2 11.2-65.6 0-3.2 0-6.4 0-8h33.6c0 3.2 0 6.4 0 9.6 0 38.4 9.6 64 9.6 64 0 8 8 14.4 16 14.4v0c9.6 0 16-6.4 16-14.4 0 0 11.2-27.2 11.2-65.6 0-3.2 0-6.4 0-8h28.8c0 3.2 0 6.4 0 9.6 0 38.4 9.6 64 9.6 64 0 8 8 14.4 16 14.4v0c9.6 0 16-6.4 16-14.4 0 0 11.2-27.2 11.2-65.6 0-59.2 0-147.2 0-203.2 0-32-11.2-54.4-11.2-54.4 6.4-1.6-1.6-8-9.6-8zM382.4 360c-9.6 0-17.6-6.4-17.6-16 0-8 8-16 17.6-16s17.6 6.4 17.6 16c0 8-8 16-17.6 16zM382.4 300.8c-9.6 0-17.6-6.4-17.6-16 0-8 8-16 17.6-16s17.6 6.4 17.6 16c0 9.6-8 16-17.6 16zM622.4 422.4c-32 27.2-35.2 51.2-16 84.8 24 30.4 16 65.6 16 65.6 30.4-27.2 38.4-54.4 22.4-83.2-12.8-19.2-30.4-27.2-22.4-67.2zM532.8 449.6c-32 27.2-35.2 51.2-16 84.8 24 30.4 16 65.6 16 65.6 30.4-27.2 38.4-54.4 22.4-83.2-12.8-19.2-30.4-27.2-22.4-67.2zM436.8 422.4c-32 27.2-35.2 51.2-16 84.8 24 30.4 16 65.6 16 65.6 30.4-27.2 38.4-54.4 22.4-83.2-12.8-19.2-30.4-27.2-22.4-67.2zM388.8 20.8c14.4 0 25.6-9.6 25.6-22.4s-11.2-22.4-25.6-22.4c-14.4 0-25.6 9.6-25.6 22.4 0 11.2 12.8 22.4 25.6 22.4z" />
<glyph unicode="&#xe948;" glyph-name="icon_nav-sub-hometheatre" d="M916.8 299.2c0-56 0-243.2 0-270.4 0-11.2 30.4-20.8 51.2-25.6 12.8-3.2 17.6-14.4 17.6-27.2h-156.8c0 12.8 3.2 24 17.6 27.2 19.2 4.8 51.2 12.8 51.2 25.6 0 28.8 0 216 0 270.4 0 20.8-67.2-6.4-67.2 36.8 0 147.2 0 241.6 0 241.6 0 12.8 11.2 24 27.2 24h104c14.4 0 27.2-11.2 27.2-24 0 0 0-94.4 0-240-4.8-43.2-72-17.6-72-38.4zM905.6 564.8c-28.8 0-51.2-20.8-51.2-46.4s22.4-46.4 51.2-46.4c28.8 0 51.2 20.8 51.2 46.4-1.6 25.6-24 46.4-51.2 46.4zM905.6 441.6c-28.8 0-51.2-20.8-51.2-46.4s22.4-46.4 51.2-46.4c28.8 0 51.2 20.8 51.2 46.4-1.6 25.6-24 46.4-51.2 46.4zM905.6 380.8c-8 0-16 6.4-16 14.4s6.4 14.4 16 14.4 16-6.4 16-14.4c-1.6-8-8-14.4-16-14.4zM905.6 504c-8 0-16 6.4-16 14.4s6.4 14.4 16 14.4 16-6.4 16-14.4c-1.6-8-8-14.4-16-14.4zM748.8-24h-467.2c-17.6 0-32 14.4-32 32v76.8c0 17.6 14.4 32 32 32h467.2c17.6 0 32-14.4 32-32v-76.8c0-19.2-14.4-32-32-32zM513.6 54.4h-200c-9.6 0-16-6.4-16-12.8s8-12.8 16-12.8h201.6c9.6 0 16 6.4 16 12.8s-8 12.8-17.6 12.8zM676.8 75.2c-19.2 0-35.2-14.4-35.2-33.6 0-17.6 16-33.6 35.2-33.6s35.2 14.4 35.2 33.6c0 17.6-16 33.6-35.2 33.6zM582.4 166.4h-136c-20.8 0-36.8 16-36.8 36.8v248c0 19.2 16 36.8 36.8 36.8h136c20.8 0 36.8-16 36.8-36.8v-248c0-20.8-17.6-36.8-36.8-36.8zM483.2 449.6c-25.6 0-46.4-20.8-46.4-46.4s20.8-46.4 46.4-46.4 46.4 20.8 46.4 46.4c0 25.6-20.8 46.4-46.4 46.4zM521.6 331.2c-36.8 0-65.6-28.8-65.6-64s28.8-64 65.6-64c36.8 0 65.6 28.8 65.6 64s-28.8 64-65.6 64zM521.6 246.4c-11.2 0-20.8 9.6-20.8 20.8s9.6 20.8 20.8 20.8c11.2 0 20.8-9.6 20.8-20.8 0-12.8-9.6-20.8-20.8-20.8zM483.2 388.8c-8 0-14.4 6.4-14.4 14.4s6.4 14.4 14.4 14.4c8 0 14.4-6.4 14.4-14.4s-6.4-14.4-14.4-14.4zM129.6 299.2c0-56 0-243.2 0-270.4 0-11.2 30.4-20.8 51.2-25.6 12.8-3.2 17.6-14.4 17.6-27.2h-158.4c0 12.8 3.2 24 17.6 27.2 19.2 4.8 51.2 12.8 51.2 25.6 0 28.8 0 216 0 270.4 0 20.8-67.2-6.4-67.2 36.8 0 147.2 0 241.6 0 241.6 0 12.8 11.2 24 27.2 24h104c14.4 0 27.2-11.2 27.2-24 0 0 0-94.4 0-240-3.2-43.2-70.4-17.6-70.4-38.4zM118.4 564.8c-28.8 0-51.2-20.8-51.2-46.4s22.4-46.4 51.2-46.4c28.8 0 51.2 20.8 51.2 46.4s-24 46.4-51.2 46.4zM118.4 441.6c-28.8 0-51.2-20.8-51.2-46.4s22.4-46.4 51.2-46.4c28.8 0 51.2 20.8 51.2 46.4s-24 46.4-51.2 46.4zM118.4 380.8c-8 0-16 6.4-16 14.4s6.4 14.4 16 14.4 16-6.4 16-14.4c0-8-8-14.4-16-14.4zM118.4 504c-8 0-16 6.4-16 14.4s6.4 14.4 16 14.4 16-6.4 16-14.4c0-8-8-14.4-16-14.4z" />
<glyph unicode="&#xe949;" glyph-name="icon_nav-sub-hotwatersystems" d="M776 361.6c-35.2 22.4-72 20.8-100.8 12.8l-76.8 76.8c19.2 44.8 6.4 81.6-11.2 107.2-36.8 60.8-110.4 54.4-148.8-6.4-20.8-33.6-19.2-68.8-11.2-97.6l-80-80c-83.2 33.6-148.8-33.6-147.2-81.6 1.6-97.6 96-96 150.4-78.4l83.2-83.2c-40-86.4 30.4-158.4 81.6-153.6 96 8 102.4 91.2 84.8 144l78.4 78.4c41.6-16 76.8-3.2 102.4 12.8 60.8 35.2 56 108.8-4.8 148.8zM432 438.4c4.8-12.8 11.2-22.4 14.4-28.8 3.2-4.8 11.2-20.8 11.2-20.8 0-6.4 0-22.4 0-43.2-12.8 0-24 0-27.2 0-8 0-17.6 0-24 0-8 0-14.4 3.2-20.8 8-8 6.4-16 11.2-24 16l70.4 68.8zM460.8 206.4c0-8 0-17.6 0-24 0-8-3.2-14.4-8-20.8s-8-11.2-11.2-17.6l-75.2 75.2c8 3.2 14.4 8 19.2 11.2 6.4 4.8 14.4 8 22.4 8l28.8 1.6c3.2 0 12.8 0 25.6 0-1.6-16-1.6-28.8-1.6-33.6zM480 256h-32v32h-16v-32h-28.8v64h28.8v-16h16v16h32v-64zM552 270.4c-3.2-4.8-6.4-9.6-11.2-11.2-4.8-3.2-11.2-3.2-19.2-3.2s-14.4 1.6-19.2 3.2c-4.8 3.2-9.6 6.4-12.8 11.2s-4.8 11.2-4.8 19.2c0 11.2 3.2 19.2 9.6 25.6s14.4 9.6 25.6 9.6c11.2 0 19.2-3.2 25.6-9.6s9.6-14.4 9.6-25.6c1.6-6.4 0-12.8-3.2-19.2zM560 384c0 8 4.8 16 11.2 22.4 8 9.6 16 19.2 20.8 28.8l67.2-67.2c-11.2-4.8-19.2-9.6-25.6-12.8-4.8-3.2-20.8-11.2-20.8-11.2-6.4 0-27.2 0-49.6 0-1.6 19.2-3.2 33.6-3.2 40v0zM560 320h64v-16h-16v-48h-32v48h-16v16zM595.2 136c-6.4 12.8-12.8 22.4-19.2 27.2s-8 12.8-9.6 20.8l-1.6 28.8c0 4.8 0 14.4 0 27.2 19.2 0 35.2 0 41.6 0v0c8 0 16-3.2 22.4-9.6 11.2-11.2 22.4-19.2 33.6-24l-67.2-70.4zM521.6 308.8c-4.8 0-8-1.6-9.6-4.8s-3.2-8-3.2-14.4c0-6.4 1.6-11.2 3.2-14.4 3.2-3.2 6.4-4.8 9.6-4.8 4.8 0 8 1.6 9.6 4.8s3.2 8 3.2 16c0 6.4-1.6 11.2-3.2 14.4-1.6 1.6-4.8 3.2-9.6 3.2z" />
<glyph unicode="&#xe94a;" glyph-name="icon_nav-sub-irons" d="M996.8 496l-52.8-28.8c25.6-145.6 56-318.4 56-318.4l-88-59.2h-904c0 0 84.8 211.2 312 361.6 0 0 0 0-1.6 1.6-9.6 17.6-3.2 40 14.4 49.6l105.6 57.6c17.6 9.6 40 3.2 51.2-14.4 1.6-1.6 1.6-4.8 1.6-6.4 116.8 44.8 257.6 68.8 427.2 59.2 3.2-16 6.4-35.2 9.6-54.4l30.4 16c17.6 9.6 40 3.2 51.2-14.4s4.8-40-12.8-49.6zM688 156.8c16 0 30.4 12.8 30.4 30.4s-12.8 30.4-30.4 30.4c-16 0-30.4-12.8-30.4-30.4s14.4-30.4 30.4-30.4zM595.2 156.8c16 0 30.4 12.8 30.4 30.4s-12.8 30.4-30.4 30.4c-16 0-30.4-12.8-30.4-30.4s14.4-30.4 30.4-30.4zM502.4 156.8c16 0 30.4 12.8 30.4 30.4s-12.8 30.4-30.4 30.4-30.4-12.8-30.4-30.4 14.4-30.4 30.4-30.4zM814.4 449.6c-4.8 22.4-24 40-51.2 41.6-222.4 1.6-344-94.4-396.8-148.8-12.8-24 0-43.2 19.2-41.6 32 0 73.6 0 118.4 0-6.4 4.8-11.2 12.8-11.2 20.8 0 16 12.8 27.2 27.2 27.2h168c16 0 27.2-12.8 27.2-27.2 0-8-4.8-16-11.2-20.8 41.6 0 73.6 0 83.2 0 30.4 0 52.8 14.4 49.6 38.4-1.6 11.2-11.2 49.6-22.4 110.4zM929.6-6.4c0 0-14.4-17.6-33.6-17.6-137.6 0-702.4 0-849.6 0-22.4 0-35.2 17.6-35.2 17.6v41.6h918.4v-41.6z" />
<glyph unicode="&#xe94b;" glyph-name="icon_nav-sub-kitchenbundles" d="M942.4 116.8c0-45.95-38.683-83.2-86.4-83.2s-86.4 37.25-86.4 83.2c0 45.95 38.683 83.2 86.4 83.2s86.4-37.25 86.4-83.2zM1024 536c0 16-16 32-25.6 32h-452.8c-12.8 0-24-14.4-24-30.4 0 0 0-102.4 1.6-225.6 0-12.8 22.4-1.6 52.8-16 0 0-3.2 6.4-3.2 17.6 0 52.8 44.8 96 99.2 96s99.2-43.2 99.2-96c0-52.8-44.8-96-99.2-96-19.2 0-36.8 4.8-51.2 14.4-1.6-12.8-8-38.4-27.2-51.2-24-17.6-68.8-4.8-68.8-12.8-1.6-97.6 0-166.4 0-166.4 0-12.8 12.8-24 25.6-24h448c12.8 0 27.2 9.6 27.2 25.6l-1.6 532.8zM646.4 22.4c-38.4 0-68.8 30.4-68.8 67.2s30.4 67.2 68.8 67.2c38.4 0 68.8-30.4 68.8-67.2s-30.4-67.2-68.8-67.2zM944 494.4c9.6 0 16-6.4 16-16s-8-16-16-16c-9.6 0-16 6.4-16 16s6.4 16 16 16zM884.8 494.4c9.6 0 16-6.4 16-16s-8-16-16-16c-9.6 0-16 6.4-16 16s6.4 16 16 16zM894.4 396.8c38.4 0 68.8-30.4 68.8-67.2s-30.4-67.2-68.8-67.2c-38.4 0-68.8 30.4-68.8 67.2s30.4 67.2 68.8 67.2zM825.6 494.4c9.6 0 16-6.4 16-16s-8-16-16-16c-9.6 0-16 6.4-16 16-1.6 9.6 6.4 16 16 16zM856 11.2c-59.2 0-108.8 46.4-108.8 104s48 104 108.8 104c59.2 0 108.8-46.4 108.8-104s-48-104-108.8-104zM748.8 312c0-42.415-35.101-76.8-78.4-76.8s-78.4 34.385-78.4 76.8c0 42.415 35.101 76.8 78.4 76.8s78.4-34.385 78.4-76.8zM940.8 329.6c0-24.742-20.774-44.8-46.4-44.8s-46.4 20.058-46.4 44.8c0 24.742 20.774 44.8 46.4 44.8s46.4-20.058 46.4-44.8zM692.8 89.6c0-24.742-20.774-44.8-46.4-44.8s-46.4 20.058-46.4 44.8c0 24.742 20.774 44.8 46.4 44.8s46.4-20.058 46.4-44.8zM0-3.2c0-11.2 8-20.8 17.6-20.8h417.6c9.6 0 17.6 9.6 17.6 20.8v67.2h-452.8v-67.2zM452.8 548.8c0 11.2-8 19.2-17.6 19.2h-51.2v14.4c0 9.6-8 17.6-17.6 17.6h-65.6c-9.6 0-17.6-8-17.6-17.6v-14.4h-113.6v14.4c0 9.6-8 17.6-17.6 17.6h-65.6c-9.6 0-17.6-8-17.6-17.6v-14.4h-51.2c-9.6 0-17.6-8-17.6-19.2v-120h452.8v120zM81.6 475.2c-11.2 0-19.2 8-19.2 19.2s8 19.2 19.2 19.2c11.2 0 19.2-8 19.2-19.2s-8-19.2-19.2-19.2zM153.6 475.2c-11.2 0-19.2 8-19.2 19.2s8 19.2 19.2 19.2c11.2 0 19.2-8 19.2-19.2s-8-19.2-19.2-19.2zM225.6 475.2c-11.2 0-19.2 8-19.2 19.2s8 19.2 19.2 19.2c11.2 0 19.2-8 19.2-19.2s-9.6-19.2-19.2-19.2zM296 475.2c-11.2 0-19.2 8-19.2 19.2s8 19.2 19.2 19.2c11.2 0 19.2-8 19.2-19.2 1.6-11.2-8-19.2-19.2-19.2zM368 475.2c-11.2 0-19.2 8-19.2 19.2s8 19.2 19.2 19.2c11.2 0 19.2-8 19.2-19.2s-8-19.2-19.2-19.2zM452.8 164.8c0 8-76.8-8-80 62.4-3.2 91.2 80 68.8 80 81.6 0 81.6 0 102.4 0 102.4h-452.8v-331.2h452.8c0 0 0 36.8 0 84.8zM348.8 168c0-9.6-8-19.2-17.6-19.2h-208c-9.6 0-17.6 8-17.6 19.2v118.4c0 9.6 8 19.2 17.6 19.2h208c9.6 0 17.6-8 17.6-19.2v-118.4zM340.8 340.8h-227.2c-4.8 0-9.6 3.2-9.6 9.6 0 4.8 4.8 9.6 9.6 9.6h227.2c4.8 0 9.6-3.2 9.6-9.6-1.6-4.8-4.8-9.6-9.6-9.6zM572.8 222.4c9.6 0 17.6 8 17.6 17.6s-8 17.6-17.6 17.6h-67.2v91.2c0 9.6-8 17.6-17.6 17.6s-17.6-8-17.6-17.6v-92.8h-67.2c-9.6 0-17.6-8-17.6-17.6s8-17.6 17.6-17.6h67.2v-81.6c0-9.6 8-17.6 17.6-17.6s17.6 8 17.6 17.6v81.6l67.2 1.6z" />
<glyph unicode="&#xe94c;" glyph-name="icon_nav-sub-microwaves" d="M60.8 600c-24 0-44.8-19.2-44.8-44.8v-534.4c0-25.6 20.8-44.8 44.8-44.8h609.6c0 0 43.2 118.4 43.2 312s-43.2 312-43.2 312h-609.6zM126.4 491.2h460.8c19.2 0 35.2-16 35.2-35.2 0 0-43.2-91.2-43.2-172.8 0-78.4 43.2-156.8 43.2-156.8 0-19.2-16-35.2-35.2-35.2h-460.8c-19.2 0-35.2 16-35.2 35.2v329.6c0 19.2 16 35.2 35.2 35.2zM721.6 600c0 0 46.4-100.8 46.4-307.2s-46.4-316.8-46.4-316.8h241.6c24 0 44.8 20.8 44.8 44.8v534.4c0 25.6-20.8 44.8-44.8 44.8h-241.6zM926.4 142.4c12.8 0 22.4-9.6 22.4-22.4s-9.6-22.4-22.4-22.4c-12.8 0-22.4 9.6-22.4 22.4s9.6 22.4 22.4 22.4zM846.4 142.4c12.8 0 22.4-9.6 22.4-22.4s-9.6-22.4-22.4-22.4c-12.8 0-22.4 9.6-22.4 22.4-1.6 12.8 9.6 22.4 22.4 22.4zM926.4 241.6c12.8 0 22.4-9.6 22.4-22.4s-9.6-22.4-22.4-22.4c-12.8 0-22.4 9.6-22.4 22.4 0 11.2 9.6 22.4 22.4 22.4zM846.4 241.6c12.8 0 22.4-9.6 22.4-22.4s-9.6-22.4-22.4-22.4c-12.8 0-22.4 9.6-22.4 22.4-1.6 11.2 9.6 22.4 22.4 22.4zM838.4 518.4h99.2c9.6 0 17.6-8 17.6-17.6v-52.8c0-9.6-8-17.6-17.6-17.6h-99.2c-9.6 0-17.6 8-17.6 17.6v52.8c0 9.6 8 17.6 17.6 17.6z" />
<glyph unicode="&#xe94d;" glyph-name="icon_nav-sub-mixingblending" d="M763.2-19.2c-35.2-14.4-75.2 3.2-89.6 38.4-9.6 25.6-1.6 99.2 4.8 140.8l-38.4 99.2 25.6 9.6 38.4-97.6c32-25.6 89.6-75.2 99.2-100.8 14.4-35.2-3.2-75.2-40-89.6zM696 28.8c8-19.2 25.6-28.8 44.8-28.8l-43.2 108.8c-3.2-25.6-6.4-65.6-1.6-80zM780.8 62.4c-6.4 14.4-35.2 41.6-57.6 59.2l43.2-110.4c14.4 11.2 20.8 32 14.4 51.2zM710.4 304c-88-33.6-361.6-142.4-459.2-180.8-12.8-4.8-35.2 6.4-35.2 20.8 0 83.2 1.6 289.6 1.6 289.6s163.2 64 283.2 110.4l-11.2 28.8 65.6 25.6 11.2-27.2c9.6 3.2 19.2 8 27.2 11.2 12.8 4.8 36.8 1.6 43.2-14.4 22.4-54.4 72-180.8 91.2-232 3.2-14.4-8-27.2-17.6-32zM558.4 395.2c-8 22.4-30.4 75.2-38.4 99.2-3.2 6.4-12.8 8-17.6 6.4-41.6-16-228.8-89.6-228.8-89.6s0-88-1.6-124.8c0-6.4 8-11.2 14.4-9.6 41.6 16 227.2 88 265.6 102.4 3.2 3.2 8 9.6 6.4 16z" />
<glyph unicode="&#xe94e;" glyph-name="icon_nav-sub-more" d="M910.4 176c-57.6 0-104 49.6-104 112s46.4 112 104 112c57.6 0 104-49.6 104-112 1.6-62.4-44.8-112-104-112zM512 176c-57.6 0-104 49.6-104 112s46.4 112 104 112c57.6 0 104-49.6 104-112s-46.4-112-104-112zM112 176c-57.6 0-104 49.6-104 112s46.4 112 104 112 104-49.6 104-112c1.6-62.4-44.8-112-104-112z" />
<glyph unicode="&#xe94f;" glyph-name="icon_nav-sub-oven" d="M792 452.8h-560v-476.8h560v476.8zM331.2 390.4h363.2c8 0 14.4-4.8 14.4-11.2s-6.4-11.2-14.4-11.2h-363.2c-8 0-14.4 4.8-14.4 11.2s6.4 11.2 14.4 11.2zM337.6 329.6h348.8c12.8 0 22.4-9.6 22.4-22.4v-225.6c0-12.8-9.6-22.4-22.4-22.4h-348.8c-12.8 0-22.4 9.6-22.4 22.4v225.6c0 12.8 9.6 22.4 22.4 22.4zM254.4 600c-12.8 0-22.4-9.6-22.4-22.4v-102.4h560v102.4c0 12.8-9.6 22.4-22.4 22.4h-515.2zM345.6 547.2c12.8 0 24-11.2 24-24s-11.2-24-24-24c-12.8 0-24 11.2-24 24-1.6 12.8 9.6 24 24 24zM656 547.2c12.8 0 24-11.2 24-24s-11.2-24-24-24-24 11.2-24 24c0 12.8 9.6 24 24 24zM552 547.2c12.8 0 24-11.2 24-24s-11.2-24-24-24-24 9.6-24 24c0 12.8 11.2 24 24 24zM448 547.2c12.8 0 24-11.2 24-24s-11.2-24-24-24-24 11.2-24 24c0 12.8 11.2 24 24 24z" />
<glyph unicode="&#xe950;" glyph-name="icon_nav-sub-phones" d="M758.4 164.8c0 0-88 0-153.6 0v-156.8c0-11.2-22.4-32-33.6-32h-308.8c-11.2 0-30.4 20.8-30.4 32v435.2c0 11.2 20.8 32 32 32h272c-9.6 1.6-22.4 0-35.2 0 0 30.4 0 51.2 0 51.2 0 11.2 20.8 32 32 32h174.4v20.8c0 11.2 9.6 20.8 20.8 20.8s20.8-9.6 20.8-20.8v-20.8h9.6c11.2 0 32-20.8 32-32v-329.6c1.6-11.2-20.8-32-32-32zM699.2 204.8h20.8c6.4 0 9.6 4.8 9.6 11.2s-4.8 9.6-9.6 9.6h-20.8c-6.4 0-9.6-4.8-9.6-9.6-1.6-6.4 3.2-11.2 9.6-11.2zM699.2 246.4h20.8c6.4 0 9.6 4.8 9.6 9.6 0 6.4-4.8 11.2-9.6 11.2h-20.8c-6.4 0-9.6-4.8-9.6-11.2-1.6-4.8 3.2-9.6 9.6-9.6zM699.2 288h20.8c6.4 0 9.6 4.8 9.6 9.6 0 6.4-4.8 9.6-9.6 9.6h-20.8c-6.4 0-9.6-4.8-9.6-9.6-1.6-4.8 3.2-9.6 9.6-9.6zM636.8 204.8h20.8c6.4 0 9.6 4.8 9.6 11.2s-4.8 9.6-9.6 9.6h-20.8c-6.4 0-9.6-4.8-9.6-9.6-1.6-6.4 3.2-11.2 9.6-11.2zM636.8 246.4h20.8c6.4 0 9.6 4.8 9.6 9.6 0 6.4-4.8 11.2-9.6 11.2h-20.8c-6.4 0-9.6-4.8-9.6-11.2-1.6-4.8 3.2-9.6 9.6-9.6zM636.8 288h20.8c6.4 0 9.6 4.8 9.6 9.6 0 6.4-4.8 9.6-9.6 9.6h-20.8c-6.4 0-9.6-4.8-9.6-9.6-1.6-4.8 3.2-9.6 9.6-9.6zM604.8 342.4c0-12.8 0-27.2 0-43.2v43.2zM419.2-3.2c24 0 41.6 14.4 41.6 30.4 0 17.6-19.2 30.4-41.6 30.4s-41.6-14.4-41.6-30.4c0-16 17.6-30.4 41.6-30.4zM273.6 419.2v-324.8c0-8 8-14.4 16-14.4h257.6c9.6 0 16 6.4 16 14.4v324.8c0 8-8 14.4-16 14.4h-257.6c-9.6 0-16-6.4-16-14.4zM750.4 502.4c0 8-8 14.4-16 14.4h-1.6c-1.6 0-1.6 0-3.2 0s-1.6 0-3.2 0h-168c-9.6 0-16-6.4-16-14.4 0 0 0-11.2 0-28.8h30.4c11.2 0 32-20.8 32-32v-92.8c51.2 0 129.6 0 129.6 0 9.6 0 16 6.4 16 14.4v139.2zM448 142.4l51.2 12.8 14.4 22.4-32 46.4-24-3.2-24-19.2-51.2 68.8 19.2 17.6 14.4 22.4-33.6 54.4-25.6-6.4-28.8-43.2c0 0 14.4-107.2 120-172.8z" />
<glyph unicode="&#xe951;" glyph-name="icon_nav-sub-rangehoods" d="M305.6 180.8v427.2h404.8v-427.2c0 0-108.8 19.2-208 19.2-104 0-196.8-19.2-196.8-19.2zM652.8 246.4c12.8 0 22.4 9.6 22.4 22.4s-9.6 22.4-22.4 22.4c-12.8 0-22.4-9.6-22.4-22.4 0-11.2 9.6-22.4 22.4-22.4zM992 51.2c0 0-8-27.2-14.4-49.6-57.6 19.2-268.8 86.4-478.4 86.4-196.8 0-390.4-64-448-84.8-9.6 20.8-17.6 48-17.6 48s228.8 91.2 467.2 91.2c240 0 491.2-91.2 491.2-91.2zM507.2 32c99.2 0 198.4-19.2 198.4-19.2l17.6-44.8h-435.2l22.4 44.8c0 0 92.8 19.2 196.8 19.2z" />
<glyph unicode="&#xe952;" glyph-name="icon_nav-sub-sinks" d="M872-24h-720c-35.2 0-64 28.8-64 64v496c0 35.2 28.8 64 64 64h721.6c35.2 0 64-28.8 64-64v-494.4c-1.6-36.8-30.4-65.6-65.6-65.6zM873.6 484.8c0 28.8-22.4 51.2-51.2 51.2h-620.8c-27.2 0-51.2-22.4-51.2-51.2v-393.6c0-28.8 22.4-51.2 51.2-51.2h620.8c27.2 0 51.2 22.4 51.2 51.2v393.6zM620.8 212.8l11.2 17.6 190.4-123.2-11.2-17.6-190.4 123.2zM620.8 363.2l190.4 123.2 11.2-17.6-190.4-123.2-11.2 17.6zM521.6 232c-30.4 0-52.8 24-52.8 54.4s24 54.4 52.8 54.4c30.4 0 54.4-24 54.4-54.4s-24-54.4-54.4-54.4zM219.2 104l190.4 123.2 11.2-17.6-190.4-123.2-11.2 17.6zM219.2 472l11.2 17.6 190.4-123.2-11.2-17.6-190.4 123.2z" />
<glyph unicode="&#xe953;" glyph-name="icon_nav-sub-stove" d="M312 467.2v76.8c0 11.2 9.6 19.2 20.8 19.2h20.8c-1.6 3.2-3.2 8-3.2 12.8 0 12.8 11.2 24 25.6 24h88c14.4 0 25.6-11.2 25.6-24 0-4.8-1.6-8-3.2-12.8h57.6c-1.6 3.2-3.2 8-3.2 12.8 0 12.8 11.2 24 25.6 24h88c14.4 0 25.6-11.2 25.6-24 0-4.8-1.6-8-3.2-12.8h20.8c11.2 0 20.8-8 20.8-19.2v-76.8h-406.4zM393.6 531.2c-9.6 0-19.2-8-19.2-17.6s8-17.6 19.2-17.6c9.6 0 19.2 8 19.2 17.6-1.6 9.6-9.6 17.6-19.2 17.6zM472 531.2c-9.6 0-19.2-8-19.2-17.6s8-17.6 19.2-17.6c9.6 0 19.2 8 19.2 17.6s-8 17.6-19.2 17.6zM552 531.2c-9.6 0-19.2-8-19.2-17.6s8-17.6 19.2-17.6c9.6 0 19.2 8 19.2 17.6s-8 17.6-19.2 17.6zM632 531.2c-9.6 0-19.2-8-19.2-17.6s8-17.6 19.2-17.6c9.6 0 19.2 8 19.2 17.6s-9.6 17.6-19.2 17.6zM312 449.6h400v-374.4h-400v374.4zM638.4 400h-249.6c-8 0-12.8-3.2-12.8-8s6.4-8 12.8-8h249.6c8 0 12.8 3.2 12.8 8s-6.4 8-12.8 8zM361.6 145.6c0-11.2 9.6-20.8 22.4-20.8h256c11.2 0 22.4 9.6 22.4 20.8v185.6c0 11.2-9.6 20.8-22.4 20.8h-256c-11.2 0-22.4-9.6-22.4-20.8v-185.6zM712 4.8c0-3.2-8-11.2-11.2-11.2s-6.4 0-11.2 0l-4.8-17.6h-22.4l-3.2 17.6c-76.8 0-219.2 0-296 0l-4.8-17.6h-22.4l-3.2 17.6c-4.8 0-8 0-11.2 0s-11.2 8-11.2 9.6c0 8 0 56 0 56h400c1.6 0 1.6-46.4 1.6-54.4z" />
<glyph unicode="&#xe954;" glyph-name="icon_nav-sub-taps" d="M542.4-32c0 0-1.6 32 33.6 38.4s192 3.2 192 3.2 27.2-8 33.6-41.6h-259.2zM673.6 441.6c0 36.8-49.6 83.2-83.2 83.2h-182.4c-56 0-84.8-43.2-84.8-99.2v-12.8h-83.2v27.2c0 92.8 75.2 166.4 168 166.4h182.4c92.8 0 168-75.2 168-166.4v-291.2h-84.8v292.8zM336 385.6v-14.4c0-8-6.4-14.4-14.4-14.4h-84.8c-8 0-14.4 6.4-14.4 14.4v14.4c0 8 6.4 14.4 14.4 14.4h84.8c8 0 14.4-6.4 14.4-14.4zM668.8 134.4h89.6v-110.4h-177.6l-44.8 51.2 108.8 89.6 24-30.4zM468.8 212.8c0 0 28.8 24 51.2 43.2 22.4 17.6 54.4-4.8 54.4-4.8l57.6-65.6-112-89.6c0 0-28.8 35.2-44.8 57.6-4.8 8-8 16-9.6 22.4h-155.2v20.8h153.6c1.6 8 4.8 16 4.8 16z" />
<glyph unicode="&#xe955;" glyph-name="icon_nav-sub-toaster" d="M852.8 358.4c-24 0-43.2 19.2-43.2 41.6s19.2 41.6 43.2 41.6c24 0 43.2-19.2 43.2-41.6s-19.2-41.6-43.2-41.6zM139.2 20.8h646.4l11.2-44.8h-668.8l11.2 44.8zM155.2 339.2c0 40 16 86.4 72 86.4h472c62.4 0 72-52.8 72-86.4l6.4-286.4h-628.8l6.4 286.4zM436.8 129.6v-28.8c0-14.4 11.2-25.6 25.6-25.6s25.6 11.2 25.6 25.6v28.8c44.8 11.2 76.8 49.6 76.8 96s-33.6 84.8-76.8 96v28.8c0 14.4-11.2 25.6-25.6 25.6s-25.6-11.2-25.6-25.6v-28.8c-44.8-11.2-76.8-49.6-76.8-96s32-84.8 76.8-96zM462.4 276.8c28.8 0 51.2-22.4 51.2-49.6s-22.4-51.2-51.2-51.2c-28.8 0-51.2 22.4-51.2 49.6s22.4 51.2 51.2 51.2zM641.6 532.8c0-33.6 0-80 0-80h-358.4c0 0 0 46.4 0 80 0 3.2-24 6.4-24 9.6 0 14.4 0 24 0 24 0 19.2 16 33.6 35.2 33.6h334.4c19.2 0 35.2-16 35.2-33.6 0 0 0-9.6 0-24 1.6-3.2-22.4-6.4-22.4-9.6z" />
<glyph unicode="&#xe956;" glyph-name="icon_nav-sub-tvs" d="M808-22.4h-585.6c-11.2 0-19.2 8-19.2 19.2v422.4c0 11.2 8 19.2 19.2 19.2h320c11.2 17.6 35.2 32 64 38.4l-51.2 84.8c-3.2 4.8-1.6 11.2 3.2 12.8 4.8 3.2 9.6 1.6 12.8-3.2l56-91.2c4.8 0 9.6 1.6 14.4 1.6 6.4 0 12.8 0 17.6-1.6l73.6 121.6c3.2 4.8 8 6.4 12.8 3.2s6.4-8 3.2-12.8l-68.8-115.2c27.2-6.4 49.6-20.8 60.8-36.8h68.8c11.2 0 19.2-8 19.2-19.2v-424c-1.6-11.2-11.2-19.2-20.8-19.2zM785.6 376c0 9.6-8 16-16 16l-118.4 12.8c-4.8 0-24 1.6-24 1.6-33.6 1.6-70.4 3.2-107.2 3.2-132.8 0-256-17.6-256-17.6-9.6 0-16-8-16-16 0 0-1.6-88-1.6-160 0-60.8 1.6-174.4 1.6-174.4 0-9.6 8-16 16-16 0 0 43.2-6.4 105.6-11.2 11.2 64 104 107.2 104 107.2v12.8c-24 19.2-28.8 51.2-28.8 51.2v1.6c-6.4 3.2-11.2 11.2-11.2 22.4 0 8 3.2 16 8 19.2v51.2c9.6 65.6 75.2 59.2 75.2 59.2s68.8 4.8 75.2-59.2v-52.8c3.2-4.8 6.4-11.2 6.4-19.2 0-11.2-4.8-19.2-11.2-22.4v-1.6c0 0-4.8-33.6-32-52.8v-11.2c72-19.2 100.8-78.4 110.4-107.2 62.4 4.8 105.6 11.2 105.6 11.2 9.6 0 16 8 16 16 0 0 0 105.6 0 174.4-1.6 68.8-1.6 161.6-1.6 161.6z" />
<glyph unicode="&#xe957;" glyph-name="icon_nav-sub-tvs-ce" d="M980.8-16h-256c-24 0-43.2 19.2-43.2 43.2v121.6c0 24 19.2 38.4 43.2 38.4h8v14.4c0 3.2 3.2 6.4 8 6.4h59.2c4.8 0 8-3.2 8-6.4v-14.4h171.2c24 0 43.2-19.2 43.2-43.2v-115.2c1.6-25.6-17.6-44.8-41.6-44.8zM803.2 166.4c-44.8 0-80-36.8-80-81.6s36.8-81.6 80-81.6c44.8 0 80 36.8 80 81.6s-35.2 81.6-80 81.6zM984 128c0 9.6-4.8 17.6-12.8 17.6h-36.8c-6.4 0-12.8-8-12.8-17.6v-25.6c0-9.6 4.8-17.6 12.8-17.6h36.8c6.4 0 12.8 8 12.8 17.6v25.6zM803.2 25.6c-33.6 0-59.2 27.2-59.2 60.8s27.2 60.8 59.2 60.8c33.6 0 59.2-27.2 59.2-60.8 0-35.2-25.6-60.8-59.2-60.8zM803.2 126.4c-22.4 0-40-19.2-40-41.6s17.6-41.6 40-41.6c22.4 0 40 19.2 40 41.6s-17.6 41.6-40 41.6zM900.8 248c0 0-49.6-11.2-99.2-11.2s-100.8 11.2-100.8 11.2c-8 0-19.2 14.4-19.2 20.8v283.2c0 8 12.8 20.8 20.8 20.8 0 0 49.6 19.2 99.2 19.2s99.2-19.2 99.2-19.2c8 0 20.8-12.8 20.8-20.8v-283.2c1.6-6.4-12.8-20.8-20.8-20.8zM803.2 267.2c14.4 0 27.2 1.6 27.2 12.8s-12.8 8-27.2 8c-14.4 0-27.2 3.2-27.2-8s11.2-12.8 27.2-12.8zM904 542.4c0 4.8-4.8 9.6-9.6 9.6h-182.4c-6.4 0-9.6-4.8-9.6-9.6v-225.6c0-4.8 4.8-9.6 9.6-9.6h182.4c6.4 0 9.6 4.8 9.6 9.6v225.6zM824 348.8c-80 49.6-91.2 131.2-91.2 131.2l22.4 32 19.2 4.8 25.6-41.6-9.6-16-14.4-14.4 38.4-52.8 17.6 14.4 17.6 3.2 24-35.2-11.2-17.6-38.4-8zM582.4-16h-564.8c-9.6 0-17.6 8-17.6 19.2v408c0 9.6 8 19.2 17.6 19.2h308.8c11.2 17.6 33.6 30.4 62.4 36.8l-49.6 81.6c-3.2 4.8-1.6 9.6 3.2 12.8s9.6 1.6 12.8-3.2l52.8-88c4.8 0 9.6 1.6 12.8 1.6 6.4 0 11.2 0 17.6-1.6l70.4 116.8c3.2 4.8 8 6.4 12.8 3.2s6.4-8 3.2-12.8l-67.2-112c25.6-6.4 46.4-19.2 57.6-35.2h65.6c9.6 0 17.6-8 17.6-19.2v-409.6c3.2-9.6-4.8-17.6-16-17.6zM561.6 369.6c0 9.6-6.4 16-16 16l-113.6 12.8c-4.8 0-22.4 1.6-22.4 1.6-32 1.6-67.2 3.2-104 3.2-128 0-248-17.6-248-17.6-8 0-16-8-16-16 0 0-1.6-84.8-1.6-153.6 0-59.2 1.6-168 1.6-168 0-9.6 6.4-16 16-16 0 0 41.6-6.4 102.4-11.2 11.2 62.4 100.8 104 100.8 104v11.2c-24 17.6-27.2 49.6-27.2 49.6v1.6c-6.4 3.2-11.2 11.2-11.2 22.4 0 8 3.2 14.4 6.4 19.2v49.6c9.6 64 73.6 57.6 73.6 57.6s65.6 4.8 73.6-57.6v-51.2c3.2-4.8 6.4-11.2 6.4-17.6 0-11.2-4.8-19.2-11.2-22.4v-1.6c0 0-4.8-33.6-30.4-51.2v-11.2c68.8-17.6 96-75.2 105.6-102.4 60.8 4.8 100.8 11.2 100.8 11.2 8 0 16 8 16 16 0 0 0 102.4 0 168-1.6 64-1.6 153.6-1.6 153.6z" />
<glyph unicode="&#xe958;" glyph-name="icon_nav-sub-vacuums" d="M748.8-16c-41.6 0-75.2 33.6-75.2 75.2s33.6 75.2 75.2 75.2c41.6 0 75.2-33.6 75.2-75.2s-33.6-75.2-75.2-75.2zM748.8 99.2c-22.4 0-40-17.6-40-40s17.6-40 40-40c22.4 0 40 17.6 40 40s-17.6 40-40 40zM750.4 160v356.8c0 11.2 9.6 20.8 20.8 20.8s20.8-9.6 20.8-20.8l4.8-356.8c0-3.2-30.4 4.8-46.4 0zM659.2 91.2c-11.2-44.8 22.4-115.2 22.4-115.2s-204.8 22.4-195.2 228.8c4.8 102.4 43.2 182.4 81.6 236.8-8-1.6-17.6 0-24 6.4-8 9.6-8 22.4 1.6 30.4l20.8 19.2c-11.2 19.2-35.2 48-89.6 48-110.4 0-102.4-120-102.4-120h-14.4v-297.6c8 0 14.4-6.4 14.4-14.4v-76.8h48c4.8 0 8-3.2 8-6.4v-6.4h20.8c4.8 0 8-3.2 8-6.4l40-35.2c0-3.2-3.2-6.4-8-6.4h-283.2c-4.8 0-8 3.2-8 6.4l46.4 35.2c0 3.2 3.2 6.4 8 6.4h19.2v8c0 3.2 3.2 6.4 8 6.4h41.6v76.8c0 6.4 3.2 11.2 8 12.8v299.2h-9.6l1.6 28.8c0 0 4.8 142.4 150.4 144 78.4 0 120-35.2 137.6-60.8l3.2 3.2c9.6 8 22.4 8 30.4-1.6 3.2-3.2 4.8-8 4.8-12.8l68.8 9.6c0 0 8-382.4 6.4-376 1.6 4.8-57.6-33.6-65.6-70.4zM566.4 49.6c6.4-4.8 16 0 12.8 6.4-16 20.8-28.8 43.2-38.4 68.8 0 3.2-3.2 3.2-6.4 1.6 0 0-1.6-1.6-1.6-1.6-1.6-1.6-3.2-4.8-3.2-8 9.6-25.6 20.8-46.4 36.8-67.2zM577.6 355.2c-1.6 0-1.6 0-3.2 0-3.2 0-6.4 0-9.6-1.6-36.8-56-54.4-104-44.8-188.8 0-4.8 3.2-8 6.4-8 1.6 0 1.6 0 3.2 0 3.2-1.6 6.4 1.6 4.8 6.4-6.4 92.8 9.6 132.8 44.8 187.2 1.6 1.6 1.6 3.2-1.6 4.8z" />
<glyph unicode="&#xe959;" glyph-name="icon_nav-sub-washerdryer" d="M352 513.6v75.2c0 6.4 6.4 12.8 12.8 12.8h294.4c6.4 0 12.8-6.4 12.8-12.8v-75.2h-320zM465.6 555.2h-72c-3.2 0-6.4-3.2-6.4-6.4s3.2-6.4 6.4-6.4h72c3.2 0 6.4 3.2 6.4 6.4s-3.2 6.4-6.4 6.4zM561.6 563.2c-8 0-14.4-6.4-14.4-14.4s6.4-14.4 14.4-14.4 14.4 6.4 14.4 14.4c0 9.6-6.4 14.4-14.4 14.4zM612.8 563.2c-8 0-14.4-6.4-14.4-14.4s6.4-14.4 14.4-14.4c8 0 14.4 6.4 14.4 14.4 0 9.6-6.4 14.4-14.4 14.4zM672 265.6h-320v230.4h320v-230.4zM553.6 456c-16-6.4-9.6-17.6-41.6-17.6s-25.6 11.2-41.6 17.6c-17.6-6.4-60.8-17.6-60.8-17.6l8-48 36.8 1.6v-84.8h116.8v84.8l33.6-3.2 8 48c1.6 1.6-43.2 12.8-59.2 19.2zM550.4 320c-12.8 12.8-14.4 24-6.4 40 9.6 14.4 6.4 32 6.4 32 12.8-12.8 16-25.6 9.6-40-6.4-9.6-14.4-14.4-9.6-32zM516.8 339.2c-12.8 12.8-14.4 24-6.4 40 9.6 14.4 6.4 32 6.4 32 12.8-12.8 16-25.6 9.6-40-6.4-9.6-12.8-12.8-9.6-32zM476.8 320c-12.8 12.8-14.4 24-6.4 40 9.6 14.4 6.4 32 6.4 32 12.8-12.8 16-25.6 9.6-40-6.4-9.6-12.8-14.4-9.6-32zM672-11.2c0-6.4-6.4-12.8-12.8-12.8h-294.4c-6.4 0-12.8 6.4-12.8 12.8v262.4h320v-262.4zM512 224c-60.8 0-110.4-49.6-110.4-110.4s49.6-110.4 110.4-110.4c60.8 0 110.4 49.6 110.4 110.4s-49.6 110.4-110.4 110.4zM512 27.2c-48 0-88 38.4-88 86.4s38.4 86.4 88 86.4c48 0 88-38.4 88-86.4s-40-86.4-88-86.4zM556.8 99.2c-3.2-6.4-12.8-12.8-20.8-12.8-6.4 0-17.6 6.4-20.8 12.8-3.2-6.4-14.4-12.8-22.4-12.8-4.8 0-16 4.8-20.8 12.8-3.2-8-14.4-12.8-20.8-12.8 11.2-22.4 33.6-38.4 60.8-38.4s49.6 16 60.8 38.4c-3.2 0-12.8 4.8-16 12.8z" />
<glyph unicode="&#xe95a;" glyph-name="icon_nav-tv-audio-electronics" d="M648 432h-68.8c-11.2 16-33.6 33.6-60.8 40l70.4 118.4c3.2 4.8 1.6 11.2-3.2 14.4s-11.2 1.6-12.8-3.2l-76.8-123.2c-6.4 0-11.2 1.6-17.6 1.6-4.8 0-9.6 0-14.4-1.6l-56 92.8c-3.2 4.8-8 6.4-12.8 3.2s-6.4-8-3.2-12.8l52.8-89.6c-28.8-6.4-52.8-9.6-65.6-41.6h-328c-11.2 1.6-19.2-1.6-19.2-11.2v-430.4c0-12.8 8-20.8 19.2-20.8h596.8c11.2 0 24 8 24 19.2v432c0 9.6-14.4 12.8-24 12.8zM624 33.6c0-9.6-8-17.6-17.6-17.6 0 0-44.8-6.4-108.8-11.2-9.6 28.8-35.2 89.6-115.2 108.8v12.8c32 19.2 35.2 54.4 35.2 54.4l1.6 1.6c6.4 3.2 11.2 11.2 11.2 22.4 0 8-1.6 14.4-6.4 19.2v52.8c-8 65.6-76.8 60.8-76.8 60.8s-67.2 6.4-76.8-60.8v-52.8c-4.8-4.8-8-11.2-8-20.8 0-11.2 4.8-20.8 12.8-24v-1.6c0 0 3.2-32 28.8-51.2v-12.8c0 0-94.4-44.8-105.6-110.4-64 4.8-107.2 11.2-107.2 11.2-9.6 0-17.6 8-17.6 17.6 0 0-1.6 115.2-1.6 177.6 0 73.6 1.6 163.2 1.6 163.2 0 9.6 8 17.6 17.6 17.6 0 0 126.4 19.2 260.8 19.2 38.4 0 76.8-1.6 110.4-3.2 0 0 19.2-1.6 24-1.6l120-12.8c9.6 0 17.6-8 17.6-17.6 0 0 0-94.4 0-161.6 1.6-70.4 0-179.2 0-179.2zM968 432h-228.8c-12.8 0-19.2-6.4-19.2-19.2v-422.4c0-12.8 6.4-22.4 19.2-22.4h228.8c12.8 0 24 9.6 24 22.4v422.4c0 12.8-11.2 19.2-24 19.2zM822.4 406.4c38.4 0 68.8-32 68.8-70.4s-30.4-70.4-68.8-70.4-68.8 32-68.8 70.4c0 40 30.4 70.4 68.8 70.4zM857.6 16c-56 0-102.4 46.4-102.4 104s46.4 104 102.4 104c56 0 102.4-46.4 102.4-104 0-56-46.4-104-102.4-104zM891.2 121.6c0-18.557-15.043-33.6-33.6-33.6s-33.6 15.043-33.6 33.6c0 18.557 15.043 33.6 33.6 33.6s33.6-15.043 33.6-33.6zM843.2 336c0-11.488-9.312-20.8-20.8-20.8s-20.8 9.312-20.8 20.8c0 11.488 9.312 20.8 20.8 20.8s20.8-9.312 20.8-20.8z" />
<glyph unicode="&#xe95b;" glyph-name="icon_nav-washers" d="M724.8 608h-425.6c-9.6 0-19.2-8-19.2-19.2v-128h464v128c0 11.2-8 19.2-19.2 19.2zM443.2 504h-105.6c-4.8 0-9.6 4.8-9.6 9.6s4.8 9.6 9.6 9.6h105.6c4.8 0 9.6-4.8 9.6-9.6 0-6.4-3.2-9.6-9.6-9.6zM584 492.8c-11.2 0-20.8 9.6-20.8 20.8s9.6 20.8 20.8 20.8c11.2 0 20.8-9.6 20.8-20.8s-9.6-20.8-20.8-20.8zM659.2 492.8c-11.2 0-20.8 9.6-20.8 20.8s9.6 20.8 20.8 20.8c11.2 0 20.8-9.6 20.8-20.8s-9.6-20.8-20.8-20.8zM280-12.8c0-11.2 8-19.2 19.2-19.2h427.2c9.6 0 19.2 8 19.2 19.2v449.6h-464v-449.6zM512 379.2c94.4 0 169.6-78.4 169.6-174.4s-75.2-172.8-169.6-172.8c-94.4 0-169.6 78.4-169.6 174.4s75.2 172.8 169.6 172.8zM512 336c-70.4 0-126.4-57.6-126.4-129.6s57.6-129.6 126.4-129.6 126.4 57.6 126.4 129.6c0 70.4-56 129.6-126.4 129.6zM512 107.2c-38.4 0-72 24-88 57.6 8 0 24 6.4 28.8 19.2 6.4-11.2 22.4-19.2 28.8-19.2 11.2 0 27.2 8 32 19.2 4.8-9.6 20.8-19.2 30.4-19.2 11.2 0 24 8 30.4 19.2 4.8-9.6 19.2-19.2 24-19.2-14.4-35.2-48-57.6-86.4-57.6z" />
<glyph unicode="&#xe95c;" glyph-name="icon_ordering" d="M908.8 89.6h-793.6c-16 0-27.2 12.8-27.2 28.8v452.8c0 16 12.8 28.8 27.2 28.8h792c16 0 27.2-12.8 27.2-28.8v-452.8c1.6-16-11.2-28.8-25.6-28.8zM409.6 526.4v0l1.6-294.4 76.8 67.2c0 0 54.4-128 54.4-128s40 12.8 40 12.8c0 0-59.2 126.4-59.2 126.4l108.8-8-222.4 224zM371.2 32h283.2c16 0 28.8-12.8 28.8-28.8s-12.8-28.8-28.8-28.8h-283.2c-16 0-28.8 12.8-28.8 28.8 0 17.6 12.8 28.8 28.8 28.8z" />
<glyph unicode="&#xe95d;" glyph-name="icon_product-customer-care" d="M744 600c0 0-129.6-56-240 0 0 0-102.4-48-220.8 0 0 0-232-387.2 220.8-624 0 0 451.2 225.6 240 624zM504 19.2c-388.8 204.8-188.8 537.6-188.8 537.6 102.4-41.6 190.4 0 190.4 0 94.4-48 206.4 0 206.4 0 182.4-344-208-537.6-208-537.6zM512 478.4v-369.6c0 0 275.2 75.2 156.8 369.6h-156.8z" />
<glyph unicode="&#xe95e;" glyph-name="icon_product-hurry" d="M868.8 524.8c0-41.532-31.519-75.2-70.4-75.2s-70.4 33.668-70.4 75.2c0 41.532 31.519 75.2 70.4 75.2s70.4-33.668 70.4-75.2zM460.8 249.6l-193.6-208c-9.6-9.6-8-27.2 3.2-35.2l9.6-8c9.6-6.4 20.8-6.4 28.8 1.6l198.4 200-46.4 49.6zM880 276.8c0 16-8 27.2-22.4 25.6l-97.6-9.6c-4.8 0-8 3.2-8 8v105.6c0 4.8-8 9.6-9.6 12.8l-9.6 9.6c0 0-86.4 92.8-128 134.4-9.6 9.6-115.2 4.8-153.6 4.8-11.2 0-19.2-3.2-22.4-12.8-3.2-11.2 0-32 8-38.4 11.2-9.6 105.6-8 124.8-8 1.6 0 3.2 0 4.8-1.6l52.8-59.2c4.8-4.8 4.8-14.4 0-19.2l-128-139.2c-3.2-3.2-3.2-8 0-11.2l144-160c4.8-4.8 1.6-12.8-4.8-12.8l-126.4-4.8c-20.8-1.6-38.4-20.8-35.2-43.2v0c1.6-16 14.4-28.8 30.4-27.2l201.6 12.8c17.6 1.6 33.6 16 33.6 35.2v24c0 8-4.8 14.4-9.6 19.2l-97.6 112c-4.8 4.8-4.8 12.8 0 17.6l30.4 35.2c6.4 8 17.6 3.2 19.2-6.4l1.6-20.8c1.6-19.2 17.6-32 35.2-30.4l139.2 12.8c16 1.6 27.2 16 27.2 32v3.2zM374.4 416h172.8c11.2 0 19.2 9.6 19.2 16s-8 16-19.2 16h-172.8c-11.2 0-19.2-9.6-19.2-16s9.6-16 19.2-16zM297.6 352h172.8c11.2 0 19.2 6.4 19.2 16s-8 16-19.2 16h-172.8c-11.2 0-19.2-6.4-19.2-16s9.6-16 19.2-16zM220.8 288h172.8c11.2 0 19.2 6.4 19.2 16s-8 16-19.2 16h-172.8c-11.2 0-19.2-6.4-19.2-16s8-16 19.2-16zM355.2 240c0 9.6-8 16-19.2 16h-172.8c-11.2 0-19.2-6.4-19.2-16s8-16 19.2-16h172.8c11.2 0 19.2 6.4 19.2 16z" />
<glyph unicode="&#xe95f;" glyph-name="icon_product-payment" d="M619.2 379.2c3.2 8 0 14.4-8 22.4-14.4 11.2-38.4 12.8-70.4 4.8l54.4-46.4c12.8 4.8 20.8 11.2 24 19.2zM246.4 304c105.6-88 310.4-112 457.6-54.4s180.8 176 75.2 264c-107.2 88-312 113.6-459.2 54.4s-179.2-176-73.6-264zM401.6 488l-20.8 17.6 27.2 11.2 20.8-17.6c44.8 12.8 86.4 11.2 123.2-6.4l-33.6-20.8c-22.4 9.6-41.6 11.2-62.4 4.8l49.6-41.6c32 6.4 52.8 9.6 65.6 11.2 11.2 1.6 25.6 0 41.6-4.8s28.8-11.2 40-20.8c16-12.8 22.4-27.2 17.6-41.6s-20.8-28.8-46.4-41.6l27.2-22.4-28.8-11.2-27.2 22.4c-52.8-17.6-100.8-14.4-147.2 6.4l35.2 22.4c27.2-14.4 56-16 84.8-6.4l-57.6 48c-41.6-9.6-72-11.2-91.2-8s-35.2 9.6-48 20.8c-30.4 25.6-20.8 52.8 30.4 78.4zM412.8 430.4c12.8-11.2 35.2-12.8 65.6-3.2l-48 40c-11.2-4.8-19.2-9.6-22.4-16-6.4-8-3.2-14.4 4.8-20.8zM704 224c-147.2-57.6-352-33.6-457.6 54.4-35.2 28.8-54.4 62.4-59.2 94.4-8-44.8 11.2-91.2 59.2-131.2 105.6-88 310.4-113.6 457.6-54.4 97.6 38.4 145.6 104 134.4 169.6-9.6-51.2-56-100.8-134.4-132.8zM246.4 182.4c105.6-88 310.4-113.6 457.6-54.4 97.6 38.4 145.6 104 134.4 169.6-8-52.8-54.4-102.4-134.4-132.8-147.2-57.6-352-33.6-457.6 54.4-35.2 28.8-54.4 62.4-59.2 94.4-8-44.8 9.6-91.2 59.2-131.2zM246.4 123.2c105.6-88 310.4-113.6 457.6-54.4 97.6 38.4 145.6 104 134.4 169.6-8-52.8-54.4-102.4-134.4-132.8-147.2-57.6-352-33.6-457.6 54.4-35.2 28.8-54.4 62.4-59.2 94.4-8-44.8 11.2-91.2 59.2-131.2zM700.8 44.8c-144-57.6-347.2-33.6-451.2 54.4-35.2 28.8-54.4 62.4-59.2 94.4-8-44.8 11.2-91.2 59.2-131.2 104-88 305.6-113.6 451.2-54.4 96 38.4 142.4 104 132.8 169.6-9.6-52.8-54.4-102.4-132.8-132.8z" />
<glyph unicode="&#xe960;" glyph-name="icon_product-return" d="M937.6 420.8l-281.6 179.2v-72h-576v-224h576v-68.8zM272 211.2l-182.4-116.8 182.4-118.4v40h384v144h-384z" />
<glyph unicode="&#xe961;" glyph-name="icon_product-testimonial" d="M926.4 414.4c-19.2 124.8-182.4 201.6-364.8 171.2-180.8-28.8-310.4-153.6-291.2-276.8 19.2-124.8 182.4-201.6 364.8-171.2 54.4 8 104 25.6 147.2 49.6v0l120-46.4-44.8 110.4c35.2 44.8 76.8 112 68.8 163.2zM624 107.2c-38.4-9.6-89.6-9.6-134.4-6.4-153.6 9.6-259.2 86.4-265.6 190.4-1.6 12.8 8 88 14.4 99.2-88-24-142.4-102.4-142.4-203.2 0-38.4 24-86.4 57.6-116.8l-28.8-86.4 96 41.6c36.8-14.4 80-25.6 126.4-28.8 129.6-8 241.6 40 276.8 110.4v0z" />
<glyph unicode="&#xe962;" glyph-name="icon_product-video-rectangular" d="M944 400c0 105.6-86.4 192-192 192h-480c-105.6 0-192-86.4-192-192v-240c0-105.6 86.4-192 192-192h480c105.6 0 192 86.4 192 192v240zM432 136v315.2l241.6-166.4-241.6-148.8z" />
<glyph unicode="&#xe963;" glyph-name="icon_returns" d="M633.6 94.4l-9.6 41.6 148.8 40 11.2-40-150.4-41.6zM601.6 166.4c-24 38.4-92.8 41.6-92.8 41.6l-62.4 227.2 236.8 64 78.4-289.6c0 0-156.8-46.4-160-43.2zM425.6 177.6l-100.8 395.2h-57.6v27.2h96v-9.6l104-392-41.6-20.8zM505.6 164.8c49.6 0 89.6-40 89.6-89.6s-40-89.6-89.6-89.6c-49.6 0-89.6 40-89.6 89.6s40 89.6 89.6 89.6zM505.6 24c28.8 0 51.2 22.4 51.2 51.2s-22.4 51.2-51.2 51.2c-28.8 0-51.2-22.4-51.2-51.2 0-27.2 22.4-51.2 51.2-51.2z" />
<glyph unicode="&#xe964;" glyph-name="icon_slider-arrow-left" d="M292.8 292.8l284.8 307.2 62.4-59.2-235.2-252.8 235.2-252.8-62.4-59.2-284.8 307.2-4.8 4.8z" />
<glyph unicode="&#xe965;" glyph-name="icon_slider-arrow-right" d="M731.2 292.8l-284.8 307.2-62.4-59.2 235.2-252.8-235.2-252.8 62.4-59.2 284.8 307.2 4.8 4.8z" />
<glyph unicode="&#xe966;" glyph-name="icon_slide-to-scroll" d="M427.2 492.8h-152l70.4-70.4-16-16-96 97.6 96 97.6 16-16-70.4-70.4h152c4.8 24 27.2 43.2 52.8 43.2 30.4 0 54.4-24 54.4-54.4v-107.2c9.6 6.4 20.8 11.2 32 11.2 24 0 43.2-14.4 51.2-35.2 9.6 8 22.4 12.8 35.2 12.8 30.4 0 54.4-24 54.4-54.4v0c9.6 6.4 20.8 11.2 32 11.2 30.4 0 54.4-24 54.4-54.4v-128c0-100.8-81.6-182.4-182.4-182.4-67.2 0-137.6 32-185.6 120-70.4 128-160 211.2-116.8 254.4 30.4 30.4 78.4 1.6 120-38.4v0 179.2h-1.6zM609.6-3.2c89.6 0 161.6 76.8 161.6 161.6 0 0 0-49.6 0 0v128c0 17.6-14.4 32-32 32s-32-14.4-32-32v-11.2h-20.8v54.4c0 17.6-14.4 32-32 32s-32-14.4-32-32v-32h-20.8v54.4c0 17.6-14.4 32-32 32s-32-14.4-32-32v-75.2h-25.6v225.6c0 17.6-14.4 32-32 32s-32-14.4-32-32v-243.2c-44.8 48-102.4 99.2-126.4 75.2s36.8-88 121.6-230.4c36.8-62.4 84.8-107.2 166.4-107.2v0zM531.2 492.8v0h163.2l-75.2-64 17.6-16 104 89.6-104 88-17.6-14.4 75.2-64h-163.2z" />
<glyph unicode="&#xe967;" glyph-name="icon_social-email" d="M504 608c-176 0-320-144-320-320s144-320 320-320 320 144 320 320-144 320-320 320zM686.4 416l-179.2-112-179.2 112h358.4zM320 176v217.6l185.6-115.2 1.6-1.6h1.6l-1.6 1.6 180.8 116.8v-219.2h-368z" />
<glyph unicode="&#xe968;" glyph-name="icon_social-facebook" d="M512 798.4c-283.2 0-512-228.8-512-512s228.8-512 512-512c283.2 0 512 228.8 512 512s-228.8 512-512 512zM676.8 472c0 0-52.8-3.2-92.8-3.2s-28.8-16-28.8-16v-83.2l123.2-3.2v-107.2l-123.2-4.8v-265.6h-128v276.8h-76.8v108.8h80c0 0 0 83.2 0 123.2 0 25.6 32 54.4 54.4 70.4 11.2 8 25.6 12.8 41.6 12.8h152v-108.8z" />
<glyph unicode="&#xe969;" glyph-name="icon_social-gogle" d="M441.6 204.8c-4.8 0-11.2 0-17.6 0-4.8 0-14.4 0-32-1.6-16-1.6-33.6-6.4-51.2-11.2-4.8-1.6-9.6-3.2-17.6-6.4s-14.4-8-22.4-14.4c-8-6.4-14.4-14.4-19.2-24-6.4-9.6-8-22.4-8-36.8 0-28.8 12.8-51.2 38.4-68.8 24-17.6 57.6-27.2 99.2-28.8 38.4 0 65.6 9.6 86.4 25.6 19.2 16 28.8 36.8 28.8 60.8 0 20.8-6.4 38.4-19.2 52.8-14.4 14.4-35.2 32-65.6 52.8zM481.6 387.2c1.6 11.2 1.6 19.2 1.6 27.2 0 32-8 64-24 96-8 16-17.6 27.2-30.4 36.8s-27.2 14.4-43.2 14.4c-22.4 0-40-9.6-54.4-25.6-12.8-17.6-17.6-36.8-17.6-59.2 0-28.8 8-59.2 25.6-89.6 8-14.4 19.2-27.2 32-36.8s27.2-16 44.8-16c20.8 0 38.4 8 52.8 22.4 6.4 9.6 11.2 19.2 12.8 30.4zM512 800c-283.2 0-512-228.8-512-512s228.8-512 512-512c283.2 0 512 228.8 512 512s-228.8 512-512 512zM528 27.2c-35.2-30.4-86.4-46.4-153.6-48-56 0-97.6 12.8-124.8 35.2s-41.6 48-41.6 78.4c0 14.4 4.8 32 12.8 49.6s24 33.6 48 48c25.6 14.4 52.8 24 81.6 28.8s51.2 6.4 70.4 6.4c-6.4 8-11.2 16-16 24s-8 19.2-8 30.4c0 6.4 1.6 12.8 3.2 17.6s3.2 9.6 4.8 14.4c-9.6-1.6-17.6-1.6-25.6-1.6-43.2 0-75.2 14.4-97.6 40-24 24-35.2 52.8-35.2 84.8 0 40 16 78.4 49.6 108.8 22.4 19.2 46.4 33.6 70.4 40 24 4.8 46.4 11.2 68.8 11.2h160l-49.6-38.4h-49.6c4.8-3.2 11.2-8 17.6-14.4s11.2-14.4 17.6-22.4c4.8-8 11.2-19.2 14.4-30.4s4.8-25.6 4.8-41.6c0-28.8-6.4-51.2-19.2-68.8-6.4-8-12.8-16-19.2-22.4-8-6.4-16-14.4-24-20.8-4.8-4.8-9.6-11.2-12.8-16-4.8-6.4-6.4-14.4-6.4-22.4s3.2-14.4 8-20.8c4.8-4.8 8-9.6 12.8-14.4l27.2-22.4c17.6-14.4 32-28.8 44.8-44.8 11.2-17.6 17.6-38.4 19.2-65.6-1.6-38.4-19.2-72-52.8-102.4zM774.4 417.6v-113.6h-65.6v113.6h-113.6v65.6h113.6v113.6h65.6v-113.6h113.6v-65.6h-113.6z" />
</font>
</defs>
</svg>
